<?xml version="1.0" encoding="UTF-8" standalone="no"?>
<!DOCTYPE svg PUBLIC "-//W3C//DTD SVG 1.1//EN"
 "http://www.w3.org/Graphics/SVG/1.1/DTD/svg11.dtd">
<!-- Generated by graphviz version 2.36.0 (20140111.2315)
 -->
<!-- Title: controllers_diagram Pages: 1 -->
<svg width="885pt" height="698pt"
 viewBox="0.00 0.00 885.00 698.00" xmlns="http://www.w3.org/2000/svg" xmlns:xlink="http://www.w3.org/1999/xlink">
<g id="graph0" class="graph" transform="scale(1 1) rotate(0) translate(4 694)">
<title>controllers_diagram</title>
<polygon fill="white" stroke="none" points="-4,4 -4,-694 881,-694 881,4 -4,4"/>
<!-- _diagram_info -->
<g id="node1" class="node"><title>_diagram_info</title>
<text text-anchor="start" x="671" y="-675.6" font-family="Times,serif" font-size="13.00">Controllers diagram</text>
<text text-anchor="start" x="671" y="-661.6" font-family="Times,serif" font-size="13.00">Date: May 21 2018 &#45; 08:49</text>
<text text-anchor="start" x="671" y="-647.6" font-family="Times,serif" font-size="13.00">Migration version: 20141007224350</text>
<text text-anchor="start" x="671" y="-633.6" font-family="Times,serif" font-size="13.00">Generated by RailRoady 1.1.2</text>
<text text-anchor="start" x="671" y="-619.6" font-family="Times,serif" font-size="13.00">http://railroady.prestonlee.com</text>
</g>
<!-- PagesController -->
<g id="node2" class="node"><title>PagesController</title>
<path fill="none" stroke="black" d="M12.4556,-444.258C12.4556,-444.258 92.4556,-444.258 92.4556,-444.258 98.4556,-444.258 104.456,-450.258 104.456,-456.258 104.456,-456.258 104.456,-540.258 104.456,-540.258 104.456,-546.258 98.4556,-552.258 92.4556,-552.258 92.4556,-552.258 12.4556,-552.258 12.4556,-552.258 6.45563,-552.258 0.455626,-546.258 0.455626,-540.258 0.455626,-540.258 0.455626,-456.258 0.455626,-456.258 0.455626,-450.258 6.45563,-444.258 12.4556,-444.258"/>
<text text-anchor="middle" x="52.4556" y="-537.058" font-family="Times,serif" font-size="14.00">PagesController</text>
<polyline fill="none" stroke="black" points="0.455626,-529.258 104.456,-529.258 "/>
<text text-anchor="start" x="8.45563" y="-514.058" font-family="Times,serif" font-size="14.00">index</text>
<text text-anchor="start" x="8.45563" y="-499.058" font-family="Times,serif" font-size="14.00">show</text>
<polyline fill="none" stroke="black" points="0.455626,-491.258 104.456,-491.258 "/>
<polyline fill="none" stroke="black" points="0.455626,-467.258 104.456,-467.258 "/>
<text text-anchor="start" x="8.45563" y="-452.058" font-family="Times,serif" font-size="14.00">_layout</text>
</g>
<!-- NewsArticlesController -->
<g id="node3" class="node"><title>NewsArticlesController</title>
<path fill="none" stroke="black" d="M589.845,-451.117C589.845,-451.117 711.845,-451.117 711.845,-451.117 717.845,-451.117 723.845,-457.117 723.845,-463.117 723.845,-463.117 723.845,-532.117 723.845,-532.117 723.845,-538.117 717.845,-544.117 711.845,-544.117 711.845,-544.117 589.845,-544.117 589.845,-544.117 583.845,-544.117 577.845,-538.117 577.845,-532.117 577.845,-532.117 577.845,-463.117 577.845,-463.117 577.845,-457.117 583.845,-451.117 589.845,-451.117"/>
<text text-anchor="middle" x="650.845" y="-528.917" font-family="Times,serif" font-size="14.00">NewsArticlesController</text>
<polyline fill="none" stroke="black" points="577.845,-521.117 723.845,-521.117 "/>
<text text-anchor="start" x="585.845" y="-505.917" font-family="Times,serif" font-size="14.00">index</text>
<polyline fill="none" stroke="black" points="577.845,-498.117 723.845,-498.117 "/>
<polyline fill="none" stroke="black" points="577.845,-474.117 723.845,-474.117 "/>
<text text-anchor="start" x="585.845" y="-458.917" font-family="Times,serif" font-size="14.00">_layout</text>
</g>
<!-- ImageMapsController -->
<g id="node4" class="node"><title>ImageMapsController</title>
<path fill="none" stroke="black" d="M310.572,-5.40065C310.572,-5.40065 423.572,-5.40065 423.572,-5.40065 429.572,-5.40065 435.572,-11.4006 435.572,-17.4006 435.572,-17.4006 435.572,-86.4006 435.572,-86.4006 435.572,-92.4006 429.572,-98.4006 423.572,-98.4006 423.572,-98.4006 310.572,-98.4006 310.572,-98.4006 304.572,-98.4006 298.572,-92.4006 298.572,-86.4006 298.572,-86.4006 298.572,-17.4006 298.572,-17.4006 298.572,-11.4006 304.572,-5.40065 310.572,-5.40065"/>
<text text-anchor="middle" x="367.072" y="-83.2006" font-family="Times,serif" font-size="14.00">ImageMapsController</text>
<polyline fill="none" stroke="black" points="298.572,-75.4006 435.572,-75.4006 "/>
<text text-anchor="start" x="306.572" y="-60.2006" font-family="Times,serif" font-size="14.00">show</text>
<polyline fill="none" stroke="black" points="298.572,-52.4006 435.572,-52.4006 "/>
<polyline fill="none" stroke="black" points="298.572,-28.4006 435.572,-28.4006 "/>
<text text-anchor="start" x="306.572" y="-13.2006" font-family="Times,serif" font-size="14.00">_layout</text>
</g>
<!-- IssueWebsitesController -->
<g id="node5" class="node"><title>IssueWebsitesController</title>
<path fill="none" stroke="black" d="M376.673,-445.78C376.673,-445.78 502.673,-445.78 502.673,-445.78 508.673,-445.78 514.673,-451.78 514.673,-457.78 514.673,-457.78 514.673,-526.78 514.673,-526.78 514.673,-532.78 508.673,-538.78 502.673,-538.78 502.673,-538.78 376.673,-538.78 376.673,-538.78 370.673,-538.78 364.673,-532.78 364.673,-526.78 364.673,-526.78 364.673,-457.78 364.673,-457.78 364.673,-451.78 370.673,-445.78 376.673,-445.78"/>
<text text-anchor="middle" x="439.673" y="-523.58" font-family="Times,serif" font-size="14.00">IssueWebsitesController</text>
<polyline fill="none" stroke="black" points="364.673,-515.78 514.673,-515.78 "/>
<text text-anchor="start" x="372.673" y="-500.58" font-family="Times,serif" font-size="14.00">index</text>
<polyline fill="none" stroke="black" points="364.673,-492.78 514.673,-492.78 "/>
<polyline fill="none" stroke="black" points="364.673,-468.78 514.673,-468.78 "/>
<text text-anchor="start" x="372.673" y="-453.58" font-family="Times,serif" font-size="14.00">_layout</text>
</g>
<!-- ApplicationController -->
<g id="node6" class="node"><title>ApplicationController</title>
<path fill="none" stroke="black" d="M195.149,-152.843C195.149,-152.843 473.149,-152.843 473.149,-152.843 479.149,-152.843 485.149,-158.843 485.149,-164.843 485.149,-164.843 485.149,-369.843 485.149,-369.843 485.149,-375.843 479.149,-381.843 473.149,-381.843 473.149,-381.843 195.149,-381.843 195.149,-381.843 189.149,-381.843 183.149,-375.843 183.149,-369.843 183.149,-369.843 183.149,-164.843 183.149,-164.843 183.149,-158.843 189.149,-152.843 195.149,-152.843"/>
<text text-anchor="middle" x="334.149" y="-366.643" font-family="Times,serif" font-size="14.00">ApplicationController</text>
<polyline fill="none" stroke="black" points="183.149,-358.843 485.149,-358.843 "/>
<polyline fill="none" stroke="black" points="183.149,-334.843 485.149,-334.843 "/>
<polyline fill="none" stroke="black" points="183.149,-310.843 485.149,-310.843 "/>
<text text-anchor="start" x="191.149" y="-295.643" font-family="Times,serif" font-size="14.00">_layout</text>
<text text-anchor="start" x="191.149" y="-280.643" font-family="Times,serif" font-size="14.00">active_council_races_order_by_region_name</text>
<text text-anchor="start" x="191.149" y="-265.643" font-family="Times,serif" font-size="14.00">active_election</text>
<text text-anchor="start" x="191.149" y="-250.643" font-family="Times,serif" font-size="14.00">active_election_date_in_english</text>
<text text-anchor="start" x="191.149" y="-235.643" font-family="Times,serif" font-size="14.00">active_school_trustee_races_order_by_region_name</text>
<text text-anchor="start" x="191.149" y="-220.643" font-family="Times,serif" font-size="14.00">api_authenticate</text>
<text text-anchor="start" x="191.149" y="-205.643" font-family="Times,serif" font-size="14.00">cms_pages</text>
<text text-anchor="start" x="191.149" y="-190.643" font-family="Times,serif" font-size="14.00">days_until_active_election_ones_place</text>
<text text-anchor="start" x="191.149" y="-175.643" font-family="Times,serif" font-size="14.00">days_until_active_election_tens_place</text>
<text text-anchor="start" x="191.149" y="-160.643" font-family="Times,serif" font-size="14.00">nav_headings</text>
</g>
<!-- ApplicationController&#45;&gt;PagesController -->
<g id="edge1" class="edge"><title>ApplicationController&#45;&gt;PagesController</title>
<path fill="none" stroke="black" d="M194.128,-382.124C162.093,-408.384 130.001,-434.691 104.482,-455.61"/>
</g>
<!-- ApplicationController&#45;&gt;NewsArticlesController -->
<g id="edge2" class="edge"><title>ApplicationController&#45;&gt;NewsArticlesController</title>
<path fill="none" stroke="black" d="M485.541,-377.422C521.163,-403.323 557.257,-429.567 586.59,-450.896"/>
</g>
<!-- ApplicationController&#45;&gt;ImageMapsController -->
<g id="edge3" class="edge"><title>ApplicationController&#45;&gt;ImageMapsController</title>
<path fill="none" stroke="black" d="M351.671,-152.683C354.604,-133.489 357.492,-114.591 359.961,-98.438"/>
</g>
<!-- ApplicationController&#45;&gt;IssueWebsitesController -->
<g id="edge4" class="edge"><title>ApplicationController&#45;&gt;IssueWebsitesController</title>
<path fill="none" stroke="black" d="M387.993,-382.118C398.562,-404.646 409.072,-427.051 417.828,-445.715"/>
</g>
<!-- HomeController -->
<g id="node7" class="node"><title>HomeController</title>
<path fill="none" stroke="black" d="M216.84,-450.697C216.84,-450.697 298.84,-450.697 298.84,-450.697 304.84,-450.697 310.84,-456.697 310.84,-462.697 310.84,-462.697 310.84,-531.697 310.84,-531.697 310.84,-537.697 304.84,-543.697 298.84,-543.697 298.84,-543.697 216.84,-543.697 216.84,-543.697 210.84,-543.697 204.84,-537.697 204.84,-531.697 204.84,-531.697 204.84,-462.697 204.84,-462.697 204.84,-456.697 210.84,-450.697 216.84,-450.697"/>
<text text-anchor="middle" x="257.84" y="-528.497" font-family="Times,serif" font-size="14.00">HomeController</text>
<polyline fill="none" stroke="black" points="204.84,-520.697 310.84,-520.697 "/>
<text text-anchor="start" x="212.84" y="-505.497" font-family="Times,serif" font-size="14.00">index</text>
<polyline fill="none" stroke="black" points="204.84,-497.697 310.84,-497.697 "/>
<polyline fill="none" stroke="black" points="204.84,-473.697 310.84,-473.697 "/>
<text text-anchor="start" x="212.84" y="-458.497" font-family="Times,serif" font-size="14.00">_layout</text>
</g>
<!-- ApplicationController&#45;&gt;HomeController -->
<g id="edge5" class="edge"><title>ApplicationController&#45;&gt;HomeController</title>
<path fill="none" stroke="black" d="M296.106,-381.933C288.043,-406.223 279.972,-430.533 273.336,-450.523"/>
</g>
<!-- ElectoralRacesController -->
<g id="node8" class="node"><title>ElectoralRacesController</title>
<path fill="none" stroke="black" d="M12,-197.881C12,-197.881 141,-197.881 141,-197.881 147,-197.881 153,-203.881 153,-209.881 153,-209.881 153,-323.881 153,-323.881 153,-329.881 147,-335.881 141,-335.881 141,-335.881 12,-335.881 12,-335.881 6,-335.881 0,-329.881 0,-323.881 0,-323.881 0,-209.881 0,-209.881 0,-203.881 6,-197.881 12,-197.881"/>
<text text-anchor="middle" x="76.5" y="-320.681" font-family="Times,serif" font-size="14.00">ElectoralRacesController</text>
<polyline fill="none" stroke="black" points="0,-312.881 153,-312.881 "/>
<text text-anchor="start" x="8" y="-297.681" font-family="Times,serif" font-size="14.00">council</text>
<text text-anchor="start" x="8" y="-282.681" font-family="Times,serif" font-size="14.00">school_trustee</text>
<text text-anchor="start" x="8" y="-267.681" font-family="Times,serif" font-size="14.00">show</text>
<text text-anchor="start" x="8" y="-252.681" font-family="Times,serif" font-size="14.00">show_json</text>
<polyline fill="none" stroke="black" points="0,-244.881 153,-244.881 "/>
<polyline fill="none" stroke="black" points="0,-220.881 153,-220.881 "/>
<text text-anchor="start" x="8" y="-205.681" font-family="Times,serif" font-size="14.00">_layout</text>
</g>
<!-- ApplicationController&#45;&gt;ElectoralRacesController -->
<g id="edge6" class="edge"><title>ApplicationController&#45;&gt;ElectoralRacesController</title>
<path fill="none" stroke="black" d="M182.783,-267.072C172.596,-267.053 162.603,-267.035 153.07,-267.018"/>
</g>
<!-- CandidaciesController -->
<g id="node9" class="node"><title>CandidaciesController</title>
<path fill="none" stroke="black" d="M550.393,-225.059C550.393,-225.059 664.393,-225.059 664.393,-225.059 670.393,-225.059 676.393,-231.059 676.393,-237.059 676.393,-237.059 676.393,-306.059 676.393,-306.059 676.393,-312.059 670.393,-318.059 664.393,-318.059 664.393,-318.059 550.393,-318.059 550.393,-318.059 544.393,-318.059 538.393,-312.059 538.393,-306.059 538.393,-306.059 538.393,-237.059 538.393,-237.059 538.393,-231.059 544.393,-225.059 550.393,-225.059"/>
<text text-anchor="middle" x="607.393" y="-302.859" font-family="Times,serif" font-size="14.00">CandidaciesController</text>
<polyline fill="none" stroke="black" points="538.393,-295.059 676.393,-295.059 "/>
<text text-anchor="start" x="546.393" y="-279.859" font-family="Times,serif" font-size="14.00">update_questionnaire</text>
<polyline fill="none" stroke="black" points="538.393,-272.059 676.393,-272.059 "/>
<polyline fill="none" stroke="black" points="538.393,-248.059 676.393,-248.059 "/>
<text text-anchor="start" x="546.393" y="-232.859" font-family="Times,serif" font-size="14.00">_layout</text>
</g>
<!-- ApplicationController&#45;&gt;CandidaciesController -->
<g id="edge7" class="edge"><title>ApplicationController&#45;&gt;CandidaciesController</title>
<path fill="none" stroke="black" d="M485.157,-269.673C503.67,-269.959 521.828,-270.239 538.249,-270.492"/>
</g>
<!-- ElectionsController -->
<g id="node10" class="node"><title>ElectionsController</title>
<path fill="none" stroke="black" d="M43.4281,-2.22735C43.4281,-2.22735 141.428,-2.22735 141.428,-2.22735 147.428,-2.22735 153.428,-8.22735 153.428,-14.2273 153.428,-14.2273 153.428,-83.2273 153.428,-83.2273 153.428,-89.2273 147.428,-95.2273 141.428,-95.2273 141.428,-95.2273 43.4281,-95.2273 43.4281,-95.2273 37.4281,-95.2273 31.4281,-89.2273 31.4281,-83.2273 31.4281,-83.2273 31.4281,-14.2273 31.4281,-14.2273 31.4281,-8.22735 37.4281,-2.22735 43.4281,-2.22735"/>
<text text-anchor="middle" x="92.4281" y="-80.0273" font-family="Times,serif" font-size="14.00">ElectionsController</text>
<polyline fill="none" stroke="black" points="31.4281,-72.2273 153.428,-72.2273 "/>
<text text-anchor="start" x="39.4281" y="-57.0273" font-family="Times,serif" font-size="14.00">show</text>
<polyline fill="none" stroke="black" points="31.4281,-49.2273 153.428,-49.2273 "/>
<polyline fill="none" stroke="black" points="31.4281,-25.2273 153.428,-25.2273 "/>
<text text-anchor="start" x="39.4281" y="-10.0273" font-family="Times,serif" font-size="14.00">_layout</text>
</g>
<!-- ApplicationController&#45;&gt;ElectionsController -->
<g id="edge8" class="edge"><title>ApplicationController&#45;&gt;ElectionsController</title>
<path fill="none" stroke="black" d="M207.271,-152.593C184.817,-132.285 162.64,-112.228 143.851,-95.2348"/>
</g>
<!-- PeopleController -->
<g id="node11" class="node"><title>PeopleController</title>
<path fill="none" stroke="black" d="M586.355,-0.5C586.355,-0.5 671.355,-0.5 671.355,-0.5 677.355,-0.5 683.355,-6.5 683.355,-12.5 683.355,-12.5 683.355,-96.5 683.355,-96.5 683.355,-102.5 677.355,-108.5 671.355,-108.5 671.355,-108.5 586.355,-108.5 586.355,-108.5 580.355,-108.5 574.355,-102.5 574.355,-96.5 574.355,-96.5 574.355,-12.5 574.355,-12.5 574.355,-6.5 580.355,-0.5 586.355,-0.5"/>
<text text-anchor="middle" x="628.855" y="-93.3" font-family="Times,serif" font-size="14.00">PeopleController</text>
<polyline fill="none" stroke="black" points="574.355,-85.5 683.355,-85.5 "/>
<text text-anchor="start" x="582.355" y="-70.3" font-family="Times,serif" font-size="14.00">redirect_show</text>
<text text-anchor="start" x="582.355" y="-55.3" font-family="Times,serif" font-size="14.00">show</text>
<polyline fill="none" stroke="black" points="574.355,-47.5 683.355,-47.5 "/>
<polyline fill="none" stroke="black" points="574.355,-23.5 683.355,-23.5 "/>
<text text-anchor="start" x="582.355" y="-8.3" font-family="Times,serif" font-size="14.00">_layout</text>
</g>
<!-- ApplicationController&#45;&gt;PeopleController -->
<g id="edge9" class="edge"><title>ApplicationController&#45;&gt;PeopleController</title>
<path fill="none" stroke="black" d="M485.387,-158.116C517.186,-135.15 548.743,-112.359 574.129,-94.0241"/>
</g>
</g>
</svg>
