<?xml version="1.0" encoding="UTF-8" standalone="no"?>
<!DOCTYPE svg PUBLIC "-//W3C//DTD SVG 1.1//EN"
 "http://www.w3.org/Graphics/SVG/1.1/DTD/svg11.dtd">
<!-- Generated by graphviz version 2.36.0 (20140111.2315)
 -->
<!-- Title: models_diagram Pages: 1 -->
<svg width="1330pt" height="1808pt"
 viewBox="0.00 0.00 1329.84 1808.00" xmlns="http://www.w3.org/2000/svg" xmlns:xlink="http://www.w3.org/1999/xlink">
<g id="graph0" class="graph" transform="scale(1 1) rotate(0) translate(4 1804)">
<title>models_diagram</title>
<polygon fill="white" stroke="none" points="-4,4 -4,-1804 1325.84,-1804 1325.84,4 -4,4"/>
<!-- _diagram_info -->
<g id="node1" class="node"><title>_diagram_info</title>
<text text-anchor="start" x="289.84" y="-1785.6" font-family="Times,serif" font-size="13.00">Models diagram</text>
<text text-anchor="start" x="289.84" y="-1771.6" font-family="Times,serif" font-size="13.00">Date: May 21 2018 &#45; 08:49</text>
<text text-anchor="start" x="289.84" y="-1757.6" font-family="Times,serif" font-size="13.00">Migration version: 20141007224350</text>
<text text-anchor="start" x="289.84" y="-1743.6" font-family="Times,serif" font-size="13.00">Generated by RailRoady 1.1.2</text>
<text text-anchor="start" x="289.84" y="-1729.6" font-family="Times,serif" font-size="13.00">http://railroady.prestonlee.com</text>
</g>
<!-- Region -->
<g id="node2" class="node"><title>Region</title>
<path fill="none" stroke="black" d="M336.34,-1101C336.34,-1101 467.34,-1101 467.34,-1101 473.34,-1101 479.34,-1107 479.34,-1113 479.34,-1113 479.34,-1285 479.34,-1285 479.34,-1291 473.34,-1297 467.34,-1297 467.34,-1297 336.34,-1297 336.34,-1297 330.34,-1297 324.34,-1291 324.34,-1285 324.34,-1285 324.34,-1113 324.34,-1113 324.34,-1107 330.34,-1101 336.34,-1101"/>
<text text-anchor="middle" x="401.84" y="-1281.8" font-family="Times,serif" font-size="14.00">Region</text>
<polyline fill="none" stroke="black" points="324.34,-1274 479.34,-1274 "/>
<text text-anchor="start" x="332.34" y="-1258.8" font-family="Times,serif" font-size="14.00">id :integer</text>
<text text-anchor="start" x="332.34" y="-1243.8" font-family="Times,serif" font-size="14.00">name :string</text>
<text text-anchor="start" x="332.34" y="-1228.8" font-family="Times,serif" font-size="14.00">start_date :date</text>
<text text-anchor="start" x="332.34" y="-1213.8" font-family="Times,serif" font-size="14.00">end_date :date</text>
<text text-anchor="start" x="332.34" y="-1198.8" font-family="Times,serif" font-size="14.00">region_type_id :integer</text>
<text text-anchor="start" x="332.34" y="-1183.8" font-family="Times,serif" font-size="14.00">region_id :integer</text>
<text text-anchor="start" x="332.34" y="-1168.8" font-family="Times,serif" font-size="14.00">created_at :datetime</text>
<text text-anchor="start" x="332.34" y="-1153.8" font-family="Times,serif" font-size="14.00">updated_at :datetime</text>
<text text-anchor="start" x="332.34" y="-1138.8" font-family="Times,serif" font-size="14.00">seats :integer</text>
<text text-anchor="start" x="332.34" y="-1123.8" font-family="Times,serif" font-size="14.00">past_results :text</text>
<text text-anchor="start" x="332.34" y="-1108.8" font-family="Times,serif" font-size="14.00">official_document :string</text>
</g>
<!-- Region&#45;&gt;Region -->
<g id="edge4" class="edge"><title>Region&#45;&gt;Region</title>
<path fill="none" stroke="#445b07" d="M486.921,-1215.32C493.074,-1211.63 496.84,-1206.19 496.84,-1199 496.84,-1192.42 493.688,-1187.31 488.439,-1183.66"/>
<ellipse fill="none" stroke="#445b07" cx="483.034" cy="-1217.02" rx="4.00002" ry="4.00002"/>
<polygon fill="#445b07" stroke="#445b07" points="488.41,-1183.65 481.295,-1175.3 483.891,-1181.51 479.371,-1179.37 479.371,-1179.37 479.371,-1179.37 483.891,-1181.51 477.447,-1183.44 488.41,-1183.65 488.41,-1183.65"/>
<text text-anchor="middle" x="529.84" y="-1195.3" font-family="Times,serif" font-size="14.00">sub_regions</text>
</g>
<!-- ElectoralRace -->
<g id="node3" class="node"><title>ElectoralRace</title>
<path fill="none" stroke="black" d="M309.34,-720.5C309.34,-720.5 470.34,-720.5 470.34,-720.5 476.34,-720.5 482.34,-726.5 482.34,-732.5 482.34,-732.5 482.34,-859.5 482.34,-859.5 482.34,-865.5 476.34,-871.5 470.34,-871.5 470.34,-871.5 309.34,-871.5 309.34,-871.5 303.34,-871.5 297.34,-865.5 297.34,-859.5 297.34,-859.5 297.34,-732.5 297.34,-732.5 297.34,-726.5 303.34,-720.5 309.34,-720.5"/>
<text text-anchor="middle" x="389.84" y="-856.3" font-family="Times,serif" font-size="14.00">ElectoralRace</text>
<polyline fill="none" stroke="black" points="297.34,-848.5 482.34,-848.5 "/>
<text text-anchor="start" x="305.34" y="-833.3" font-family="Times,serif" font-size="14.00">id :integer</text>
<text text-anchor="start" x="305.34" y="-818.3" font-family="Times,serif" font-size="14.00">region_id :integer</text>
<text text-anchor="start" x="305.34" y="-803.3" font-family="Times,serif" font-size="14.00">election_id :integer</text>
<text text-anchor="start" x="305.34" y="-788.3" font-family="Times,serif" font-size="14.00">polygon :text</text>
<text text-anchor="start" x="305.34" y="-773.3" font-family="Times,serif" font-size="14.00">created_at :datetime</text>
<text text-anchor="start" x="305.34" y="-758.3" font-family="Times,serif" font-size="14.00">updated_at :datetime</text>
<text text-anchor="start" x="305.34" y="-743.3" font-family="Times,serif" font-size="14.00">seats_to_fill :integer</text>
<text text-anchor="start" x="305.34" y="-728.3" font-family="Times,serif" font-size="14.00">navigation_heading_id :integer</text>
</g>
<!-- Region&#45;&gt;ElectoralRace -->
<g id="edge1" class="edge"><title>Region&#45;&gt;ElectoralRace</title>
<path fill="none" stroke="#0c1dda" d="M398.684,-1092.55C396.714,-1026.71 394.211,-943.061 392.371,-881.574"/>
<ellipse fill="none" stroke="#0c1dda" cx="398.815" cy="-1096.93" rx="4" ry="4"/>
<polygon fill="#0c1dda" stroke="#0c1dda" points="392.369,-881.514 396.568,-871.384 392.219,-876.516 392.07,-871.518 392.07,-871.518 392.07,-871.518 392.219,-876.516 387.572,-871.653 392.369,-881.514 392.369,-881.514"/>
</g>
<!-- Election -->
<g id="node10" class="node"><title>Election</title>
<path fill="none" stroke="black" d="M179.84,-910.5C179.84,-910.5 301.84,-910.5 301.84,-910.5 307.84,-910.5 313.84,-916.5 313.84,-922.5 313.84,-922.5 313.84,-1049.5 313.84,-1049.5 313.84,-1055.5 307.84,-1061.5 301.84,-1061.5 301.84,-1061.5 179.84,-1061.5 179.84,-1061.5 173.84,-1061.5 167.84,-1055.5 167.84,-1049.5 167.84,-1049.5 167.84,-922.5 167.84,-922.5 167.84,-916.5 173.84,-910.5 179.84,-910.5"/>
<text text-anchor="middle" x="240.84" y="-1046.3" font-family="Times,serif" font-size="14.00">Election</text>
<polyline fill="none" stroke="black" points="167.84,-1038.5 313.84,-1038.5 "/>
<text text-anchor="start" x="175.84" y="-1023.3" font-family="Times,serif" font-size="14.00">id :integer</text>
<text text-anchor="start" x="175.84" y="-1008.3" font-family="Times,serif" font-size="14.00">name :string</text>
<text text-anchor="start" x="175.84" y="-993.3" font-family="Times,serif" font-size="14.00">is_active :boolean</text>
<text text-anchor="start" x="175.84" y="-978.3" font-family="Times,serif" font-size="14.00">is_by_election :boolean</text>
<text text-anchor="start" x="175.84" y="-963.3" font-family="Times,serif" font-size="14.00">writ_date :date</text>
<text text-anchor="start" x="175.84" y="-948.3" font-family="Times,serif" font-size="14.00">election_date :date</text>
<text text-anchor="start" x="175.84" y="-933.3" font-family="Times,serif" font-size="14.00">created_at :datetime</text>
<text text-anchor="start" x="175.84" y="-918.3" font-family="Times,serif" font-size="14.00">updated_at :datetime</text>
</g>
<!-- Region&#45;&gt;Election -->
<g id="edge2" class="edge"><title>Region&#45;&gt;Election</title>
<path fill="none" stroke="#199adb" d="M321.555,-1092.78C315.646,-1085.04 309.736,-1077.29 303.952,-1069.71"/>
<polygon fill="#199adb" stroke="#199adb" points="321.635,-1092.89 324.124,-1103.57 324.669,-1096.86 327.702,-1100.84 327.702,-1100.84 327.702,-1100.84 324.669,-1096.86 331.279,-1098.11 321.635,-1092.89 321.635,-1092.89"/>
<polygon fill="#199adb" stroke="#199adb" points="303.797,-1069.51 301.308,-1058.83 300.764,-1065.53 297.731,-1061.56 297.731,-1061.56 297.731,-1061.56 300.764,-1065.53 294.153,-1064.29 303.797,-1069.51 303.797,-1069.51"/>
</g>
<!-- Candidacy -->
<g id="node13" class="node"><title>Candidacy</title>
<path fill="none" stroke="black" d="M324.34,-161C324.34,-161 455.34,-161 455.34,-161 461.34,-161 467.34,-167 467.34,-173 467.34,-173 467.34,-315 467.34,-315 467.34,-321 461.34,-327 455.34,-327 455.34,-327 324.34,-327 324.34,-327 318.34,-327 312.34,-321 312.34,-315 312.34,-315 312.34,-173 312.34,-173 312.34,-167 318.34,-161 324.34,-161"/>
<text text-anchor="middle" x="389.84" y="-311.8" font-family="Times,serif" font-size="14.00">Candidacy</text>
<polyline fill="none" stroke="black" points="312.34,-304 467.34,-304 "/>
<text text-anchor="start" x="320.34" y="-288.8" font-family="Times,serif" font-size="14.00">id :integer</text>
<text text-anchor="start" x="320.34" y="-273.8" font-family="Times,serif" font-size="14.00">questionnaire :text</text>
<text text-anchor="start" x="320.34" y="-258.8" font-family="Times,serif" font-size="14.00">end_date :date</text>
<text text-anchor="start" x="320.34" y="-243.8" font-family="Times,serif" font-size="14.00">is_incumbent :boolean</text>
<text text-anchor="start" x="320.34" y="-228.8" font-family="Times,serif" font-size="14.00">is_winner :boolean</text>
<text text-anchor="start" x="320.34" y="-213.8" font-family="Times,serif" font-size="14.00">person_id :integer</text>
<text text-anchor="start" x="320.34" y="-198.8" font-family="Times,serif" font-size="14.00">electoral_race_id :integer</text>
<text text-anchor="start" x="320.34" y="-183.8" font-family="Times,serif" font-size="14.00">created_at :datetime</text>
<text text-anchor="start" x="320.34" y="-168.8" font-family="Times,serif" font-size="14.00">updated_at :datetime</text>
</g>
<!-- Region&#45;&gt;Candidacy -->
<g id="edge3" class="edge"><title>Region&#45;&gt;Candidacy</title>
<path fill="none" stroke="#39b5f5" d="M488.358,-1160.17C552.858,-1125.46 629.84,-1067.23 629.84,-987 629.84,-987 629.84,-987 629.84,-530 629.84,-431.322 544.618,-349.047 475.741,-298.665"/>
<polygon fill="#39b5f5" stroke="#39b5f5" points="488.198,-1160.26 477.252,-1160.93 483.773,-1162.59 479.348,-1164.92 479.348,-1164.92 479.348,-1164.92 483.773,-1162.59 481.444,-1168.9 488.198,-1160.26 488.198,-1160.26"/>
<polygon fill="#39b5f5" stroke="#39b5f5" points="475.545,-298.524 470.059,-289.028 471.487,-295.602 467.43,-292.68 467.43,-292.68 467.43,-292.68 471.487,-295.602 464.8,-296.332 475.545,-298.524 475.545,-298.524"/>
</g>
<!-- ElectoralRace&#45;&gt;Candidacy -->
<g id="edge6" class="edge"><title>ElectoralRace&#45;&gt;Candidacy</title>
<path fill="none" stroke="#1d4c75" d="M389.84,-711.966C389.84,-611.305 389.84,-442.174 389.84,-337.452"/>
<ellipse fill="none" stroke="#1d4c75" cx="389.84" cy="-716.252" rx="4" ry="4"/>
<polygon fill="#1d4c75" stroke="#1d4c75" points="389.84,-337.21 394.34,-327.21 389.84,-332.21 389.84,-327.21 389.84,-327.21 389.84,-327.21 389.84,-332.21 385.34,-327.21 389.84,-337.21 389.84,-337.21"/>
</g>
<!-- Person -->
<g id="node14" class="node"><title>Person</title>
<path fill="none" stroke="black" d="M971.84,-380.5C971.84,-380.5 1085.84,-380.5 1085.84,-380.5 1091.84,-380.5 1097.84,-386.5 1097.84,-392.5 1097.84,-392.5 1097.84,-669.5 1097.84,-669.5 1097.84,-675.5 1091.84,-681.5 1085.84,-681.5 1085.84,-681.5 971.84,-681.5 971.84,-681.5 965.84,-681.5 959.84,-675.5 959.84,-669.5 959.84,-669.5 959.84,-392.5 959.84,-392.5 959.84,-386.5 965.84,-380.5 971.84,-380.5"/>
<text text-anchor="middle" x="1028.84" y="-666.3" font-family="Times,serif" font-size="14.00">Person</text>
<polyline fill="none" stroke="black" points="959.84,-658.5 1097.84,-658.5 "/>
<text text-anchor="start" x="967.84" y="-643.3" font-family="Times,serif" font-size="14.00">id :integer</text>
<text text-anchor="start" x="967.84" y="-628.3" font-family="Times,serif" font-size="14.00">name :string</text>
<text text-anchor="start" x="967.84" y="-613.3" font-family="Times,serif" font-size="14.00">office_address :string</text>
<text text-anchor="start" x="967.84" y="-598.3" font-family="Times,serif" font-size="14.00">phone_number :string</text>
<text text-anchor="start" x="967.84" y="-583.3" font-family="Times,serif" font-size="14.00">email :string</text>
<text text-anchor="start" x="967.84" y="-568.3" font-family="Times,serif" font-size="14.00">image :string</text>
<text text-anchor="start" x="967.84" y="-553.3" font-family="Times,serif" font-size="14.00">website :string</text>
<text text-anchor="start" x="967.84" y="-538.3" font-family="Times,serif" font-size="14.00">council_site :string</text>
<text text-anchor="start" x="967.84" y="-523.3" font-family="Times,serif" font-size="14.00">facebook :string</text>
<text text-anchor="start" x="967.84" y="-508.3" font-family="Times,serif" font-size="14.00">twitter :string</text>
<text text-anchor="start" x="967.84" y="-493.3" font-family="Times,serif" font-size="14.00">youtube :string</text>
<text text-anchor="start" x="967.84" y="-478.3" font-family="Times,serif" font-size="14.00">linkedin :string</text>
<text text-anchor="start" x="967.84" y="-463.3" font-family="Times,serif" font-size="14.00">created_at :datetime</text>
<text text-anchor="start" x="967.84" y="-448.3" font-family="Times,serif" font-size="14.00">updated_at :datetime</text>
<text text-anchor="start" x="967.84" y="-433.3" font-family="Times,serif" font-size="14.00">also_known_as :string</text>
<text text-anchor="start" x="967.84" y="-418.3" font-family="Times,serif" font-size="14.00">email_other :string</text>
<text text-anchor="start" x="967.84" y="-403.3" font-family="Times,serif" font-size="14.00">instagram :string</text>
<text text-anchor="start" x="967.84" y="-388.3" font-family="Times,serif" font-size="14.00">google_plus :string</text>
</g>
<!-- ElectoralRace&#45;&gt;Person -->
<g id="edge7" class="edge"><title>ElectoralRace&#45;&gt;Person</title>
<path fill="none" stroke="#96a4c2" d="M491.689,-753.081C619.192,-700.603 834.844,-611.845 950.31,-564.321"/>
<polygon fill="#96a4c2" stroke="#96a4c2" points="491.662,-753.092 480.702,-752.737 487.038,-754.995 482.414,-756.898 482.414,-756.898 482.414,-756.898 487.038,-754.995 484.127,-761.059 491.662,-753.092 491.662,-753.092"/>
<polygon fill="#96a4c2" stroke="#96a4c2" points="950.559,-564.219 961.519,-564.574 955.182,-562.316 959.806,-560.413 959.806,-560.413 959.806,-560.413 955.182,-562.316 958.093,-556.252 950.559,-564.219 950.559,-564.219"/>
</g>
<!-- AdminUser -->
<g id="node4" class="node"><title>AdminUser</title>
<path fill="none" stroke="black" d="M847.84,-1457C847.84,-1457 1023.84,-1457 1023.84,-1457 1029.84,-1457 1035.84,-1463 1035.84,-1469 1035.84,-1469 1035.84,-1671 1035.84,-1671 1035.84,-1677 1029.84,-1683 1023.84,-1683 1023.84,-1683 847.84,-1683 847.84,-1683 841.84,-1683 835.84,-1677 835.84,-1671 835.84,-1671 835.84,-1469 835.84,-1469 835.84,-1463 841.84,-1457 847.84,-1457"/>
<text text-anchor="middle" x="935.84" y="-1667.8" font-family="Times,serif" font-size="14.00">AdminUser</text>
<polyline fill="none" stroke="black" points="835.84,-1660 1035.84,-1660 "/>
<text text-anchor="start" x="843.84" y="-1644.8" font-family="Times,serif" font-size="14.00">id :integer</text>
<text text-anchor="start" x="843.84" y="-1629.8" font-family="Times,serif" font-size="14.00">email :string</text>
<text text-anchor="start" x="843.84" y="-1614.8" font-family="Times,serif" font-size="14.00">encrypted_password :string</text>
<text text-anchor="start" x="843.84" y="-1599.8" font-family="Times,serif" font-size="14.00">reset_password_token :string</text>
<text text-anchor="start" x="843.84" y="-1584.8" font-family="Times,serif" font-size="14.00">reset_password_sent_at :datetime</text>
<text text-anchor="start" x="843.84" y="-1569.8" font-family="Times,serif" font-size="14.00">remember_created_at :datetime</text>
<text text-anchor="start" x="843.84" y="-1554.8" font-family="Times,serif" font-size="14.00">sign_in_count :integer</text>
<text text-anchor="start" x="843.84" y="-1539.8" font-family="Times,serif" font-size="14.00">current_sign_in_at :datetime</text>
<text text-anchor="start" x="843.84" y="-1524.8" font-family="Times,serif" font-size="14.00">last_sign_in_at :datetime</text>
<text text-anchor="start" x="843.84" y="-1509.8" font-family="Times,serif" font-size="14.00">current_sign_in_ip :string</text>
<text text-anchor="start" x="843.84" y="-1494.8" font-family="Times,serif" font-size="14.00">last_sign_in_ip :string</text>
<text text-anchor="start" x="843.84" y="-1479.8" font-family="Times,serif" font-size="14.00">created_at :datetime</text>
<text text-anchor="start" x="843.84" y="-1464.8" font-family="Times,serif" font-size="14.00">updated_at :datetime</text>
</g>
<!-- ImageMap -->
<g id="node5" class="node"><title>ImageMap</title>
<path fill="none" stroke="black" d="M154.84,-1509.5C154.84,-1509.5 284.84,-1509.5 284.84,-1509.5 290.84,-1509.5 296.84,-1515.5 296.84,-1521.5 296.84,-1521.5 296.84,-1618.5 296.84,-1618.5 296.84,-1624.5 290.84,-1630.5 284.84,-1630.5 284.84,-1630.5 154.84,-1630.5 154.84,-1630.5 148.84,-1630.5 142.84,-1624.5 142.84,-1618.5 142.84,-1618.5 142.84,-1521.5 142.84,-1521.5 142.84,-1515.5 148.84,-1509.5 154.84,-1509.5"/>
<text text-anchor="middle" x="219.84" y="-1615.3" font-family="Times,serif" font-size="14.00">ImageMap</text>
<polyline fill="none" stroke="black" points="142.84,-1607.5 296.84,-1607.5 "/>
<text text-anchor="start" x="150.84" y="-1592.3" font-family="Times,serif" font-size="14.00">id :integer</text>
<text text-anchor="start" x="150.84" y="-1577.3" font-family="Times,serif" font-size="14.00">name :string</text>
<text text-anchor="start" x="150.84" y="-1562.3" font-family="Times,serif" font-size="14.00">image :string</text>
<text text-anchor="start" x="150.84" y="-1547.3" font-family="Times,serif" font-size="14.00">created_at :datetime</text>
<text text-anchor="start" x="150.84" y="-1532.3" font-family="Times,serif" font-size="14.00">updated_at :datetime</text>
<text text-anchor="start" x="150.84" y="-1517.3" font-family="Times,serif" font-size="14.00">all_candidates_url :string</text>
</g>
<!-- ImageMap&#45;&gt;ElectoralRace -->
<g id="edge11" class="edge"><title>ImageMap&#45;&gt;ElectoralRace</title>
<path fill="none" stroke="#03b462" d="M233.759,-1499.36C256.045,-1388.14 298.945,-1175.3 315.84,-1100 332.46,-1025.93 353.07,-942.111 368.315,-881.44"/>
<polygon fill="#03b462" stroke="#03b462" points="233.698,-1499.67 227.321,-1508.59 232.716,-1504.57 231.733,-1509.47 231.733,-1509.47 231.733,-1509.47 232.716,-1504.57 236.146,-1510.36 233.698,-1499.67 233.698,-1499.67"/>
<polygon fill="#03b462" stroke="#03b462" points="368.369,-881.226 375.173,-872.627 369.589,-876.377 370.809,-871.528 370.809,-871.528 370.809,-871.528 369.589,-876.377 366.445,-870.43 368.369,-881.226 368.369,-881.226"/>
</g>
<!-- ImageMapPolygon -->
<g id="node7" class="node"><title>ImageMapPolygon</title>
<path fill="none" stroke="black" d="M122.34,-1138.5C122.34,-1138.5 253.34,-1138.5 253.34,-1138.5 259.34,-1138.5 265.34,-1144.5 265.34,-1150.5 265.34,-1150.5 265.34,-1247.5 265.34,-1247.5 265.34,-1253.5 259.34,-1259.5 253.34,-1259.5 253.34,-1259.5 122.34,-1259.5 122.34,-1259.5 116.34,-1259.5 110.34,-1253.5 110.34,-1247.5 110.34,-1247.5 110.34,-1150.5 110.34,-1150.5 110.34,-1144.5 116.34,-1138.5 122.34,-1138.5"/>
<text text-anchor="middle" x="187.84" y="-1244.3" font-family="Times,serif" font-size="14.00">ImageMapPolygon</text>
<polyline fill="none" stroke="black" points="110.34,-1236.5 265.34,-1236.5 "/>
<text text-anchor="start" x="118.34" y="-1221.3" font-family="Times,serif" font-size="14.00">id :integer</text>
<text text-anchor="start" x="118.34" y="-1206.3" font-family="Times,serif" font-size="14.00">image_map_id :integer</text>
<text text-anchor="start" x="118.34" y="-1191.3" font-family="Times,serif" font-size="14.00">electoral_race_id :integer</text>
<text text-anchor="start" x="118.34" y="-1176.3" font-family="Times,serif" font-size="14.00">coordinates :text</text>
<text text-anchor="start" x="118.34" y="-1161.3" font-family="Times,serif" font-size="14.00">created_at :datetime</text>
<text text-anchor="start" x="118.34" y="-1146.3" font-family="Times,serif" font-size="14.00">updated_at :datetime</text>
</g>
<!-- ImageMap&#45;&gt;ImageMapPolygon -->
<g id="edge10" class="edge"><title>ImageMap&#45;&gt;ImageMapPolygon</title>
<path fill="none" stroke="#01b777" d="M213.948,-1501.05C208.252,-1435.37 199.662,-1336.32 193.908,-1269.97"/>
<ellipse fill="none" stroke="#01b777" cx="214.317" cy="-1505.32" rx="4" ry="4"/>
<polygon fill="#01b777" stroke="#01b777" points="193.873,-1269.57 197.493,-1259.22 193.441,-1264.59 193.009,-1259.61 193.009,-1259.61 193.009,-1259.61 193.441,-1264.59 188.526,-1260 193.873,-1269.57 193.873,-1269.57"/>
</g>
<!-- NewsMention -->
<g id="node6" class="node"><title>NewsMention</title>
<path fill="none" stroke="black" d="M1107.34,-0.5C1107.34,-0.5 1230.34,-0.5 1230.34,-0.5 1236.34,-0.5 1242.34,-6.5 1242.34,-12.5 1242.34,-12.5 1242.34,-109.5 1242.34,-109.5 1242.34,-115.5 1236.34,-121.5 1230.34,-121.5 1230.34,-121.5 1107.34,-121.5 1107.34,-121.5 1101.34,-121.5 1095.34,-115.5 1095.34,-109.5 1095.34,-109.5 1095.34,-12.5 1095.34,-12.5 1095.34,-6.5 1101.34,-0.5 1107.34,-0.5"/>
<text text-anchor="middle" x="1168.84" y="-106.3" font-family="Times,serif" font-size="14.00">NewsMention</text>
<polyline fill="none" stroke="black" points="1095.34,-98.5 1242.34,-98.5 "/>
<text text-anchor="start" x="1103.34" y="-83.3" font-family="Times,serif" font-size="14.00">id :integer</text>
<text text-anchor="start" x="1103.34" y="-68.3" font-family="Times,serif" font-size="14.00">summary :text</text>
<text text-anchor="start" x="1103.34" y="-53.3" font-family="Times,serif" font-size="14.00">person_id :integer</text>
<text text-anchor="start" x="1103.34" y="-38.3" font-family="Times,serif" font-size="14.00">news_article_id :integer</text>
<text text-anchor="start" x="1103.34" y="-23.3" font-family="Times,serif" font-size="14.00">created_at :datetime</text>
<text text-anchor="start" x="1103.34" y="-8.3" font-family="Times,serif" font-size="14.00">updated_at :datetime</text>
</g>
<!-- NewsArticle -->
<g id="node8" class="node"><title>NewsArticle</title>
<path fill="none" stroke="black" d="M1100.34,-161C1100.34,-161 1237.34,-161 1237.34,-161 1243.34,-161 1249.34,-167 1249.34,-173 1249.34,-173 1249.34,-315 1249.34,-315 1249.34,-321 1243.34,-327 1237.34,-327 1237.34,-327 1100.34,-327 1100.34,-327 1094.34,-327 1088.34,-321 1088.34,-315 1088.34,-315 1088.34,-173 1088.34,-173 1088.34,-167 1094.34,-161 1100.34,-161"/>
<text text-anchor="middle" x="1168.84" y="-311.8" font-family="Times,serif" font-size="14.00">NewsArticle</text>
<polyline fill="none" stroke="black" points="1088.34,-304 1249.34,-304 "/>
<text text-anchor="start" x="1096.34" y="-288.8" font-family="Times,serif" font-size="14.00">id :integer</text>
<text text-anchor="start" x="1096.34" y="-273.8" font-family="Times,serif" font-size="14.00">title :string</text>
<text text-anchor="start" x="1096.34" y="-258.8" font-family="Times,serif" font-size="14.00">publication_date :datetime</text>
<text text-anchor="start" x="1096.34" y="-243.8" font-family="Times,serif" font-size="14.00">url :string</text>
<text text-anchor="start" x="1096.34" y="-228.8" font-family="Times,serif" font-size="14.00">moderation :string</text>
<text text-anchor="start" x="1096.34" y="-213.8" font-family="Times,serif" font-size="14.00">rejection_reason :text</text>
<text text-anchor="start" x="1096.34" y="-198.8" font-family="Times,serif" font-size="14.00">news_source_id :integer</text>
<text text-anchor="start" x="1096.34" y="-183.8" font-family="Times,serif" font-size="14.00">created_at :datetime</text>
<text text-anchor="start" x="1096.34" y="-168.8" font-family="Times,serif" font-size="14.00">updated_at :datetime</text>
</g>
<!-- NewsArticle&#45;&gt;NewsMention -->
<g id="edge15" class="edge"><title>NewsArticle&#45;&gt;NewsMention</title>
<path fill="none" stroke="#1e9340" d="M1168.84,-152.859C1168.84,-145.72 1168.84,-138.578 1168.84,-131.61"/>
<ellipse fill="none" stroke="#1e9340" cx="1168.84" cy="-156.973" rx="4" ry="4"/>
<polygon fill="#1e9340" stroke="#1e9340" points="1168.84,-131.548 1173.34,-121.548 1168.84,-126.548 1168.84,-121.548 1168.84,-121.548 1168.84,-121.548 1168.84,-126.548 1164.34,-121.548 1168.84,-131.548 1168.84,-131.548"/>
</g>
<!-- NewsArticle&#45;&gt;Person -->
<g id="edge16" class="edge"><title>NewsArticle&#45;&gt;Person</title>
<path fill="none" stroke="#d80b10" d="M1081.01,-310.418C1070.86,-321.289 1061.7,-333.226 1054.84,-346 1050.62,-353.846 1047.01,-362.14 1043.93,-370.694"/>
<polygon fill="#d80b10" stroke="#d80b10" points="1081.2,-310.225 1091.4,-306.206 1084.69,-306.645 1088.18,-303.065 1088.18,-303.065 1088.18,-303.065 1084.69,-306.645 1084.96,-299.923 1081.2,-310.225 1081.2,-310.225"/>
<polygon fill="#d80b10" stroke="#d80b10" points="1043.84,-370.968 1036.4,-379.025 1042.25,-375.71 1040.67,-380.452 1040.67,-380.452 1040.67,-380.452 1042.25,-375.71 1044.93,-381.879 1043.84,-370.968 1043.84,-370.968"/>
</g>
<!-- NewsSource -->
<g id="node9" class="node"><title>NewsSource</title>
<path fill="none" stroke="black" d="M1129.34,-1316.5C1129.34,-1316.5 1256.34,-1316.5 1256.34,-1316.5 1262.34,-1316.5 1268.34,-1322.5 1268.34,-1328.5 1268.34,-1328.5 1268.34,-1425.5 1268.34,-1425.5 1268.34,-1431.5 1262.34,-1437.5 1256.34,-1437.5 1256.34,-1437.5 1129.34,-1437.5 1129.34,-1437.5 1123.34,-1437.5 1117.34,-1431.5 1117.34,-1425.5 1117.34,-1425.5 1117.34,-1328.5 1117.34,-1328.5 1117.34,-1322.5 1123.34,-1316.5 1129.34,-1316.5"/>
<text text-anchor="middle" x="1192.84" y="-1422.3" font-family="Times,serif" font-size="14.00">NewsSource</text>
<polyline fill="none" stroke="black" points="1117.34,-1414.5 1268.34,-1414.5 "/>
<text text-anchor="start" x="1125.34" y="-1399.3" font-family="Times,serif" font-size="14.00">id :integer</text>
<text text-anchor="start" x="1125.34" y="-1384.3" font-family="Times,serif" font-size="14.00">name :string</text>
<text text-anchor="start" x="1125.34" y="-1369.3" font-family="Times,serif" font-size="14.00">base_url :string</text>
<text text-anchor="start" x="1125.34" y="-1354.3" font-family="Times,serif" font-size="14.00">created_at :datetime</text>
<text text-anchor="start" x="1125.34" y="-1339.3" font-family="Times,serif" font-size="14.00">updated_at :datetime</text>
<text text-anchor="start" x="1125.34" y="-1324.3" font-family="Times,serif" font-size="14.00">is_local_source :boolean</text>
</g>
<!-- NewsSource&#45;&gt;NewsArticle -->
<g id="edge18" class="edge"><title>NewsSource&#45;&gt;NewsArticle</title>
<path fill="none" stroke="#f55fba" d="M1202.61,-1308.27C1210.34,-1248.78 1219.84,-1159.84 1219.84,-1082 1219.84,-1082 1219.84,-1082 1219.84,-530 1219.84,-447.986 1223.22,-426.151 1205.84,-346 1205.19,-342.994 1204.47,-339.958 1203.69,-336.906"/>
<ellipse fill="none" stroke="#f55fba" cx="1202.05" cy="-1312.49" rx="4.00001" ry="4.00001"/>
<polygon fill="#f55fba" stroke="#f55fba" points="1203.65,-336.777 1205.36,-325.945 1202.34,-331.953 1201.02,-327.13 1201.02,-327.13 1201.02,-327.13 1202.34,-331.953 1196.68,-328.315 1203.65,-336.777 1203.65,-336.777"/>
</g>
<!-- Election&#45;&gt;ElectoralRace -->
<g id="edge20" class="edge"><title>Election&#45;&gt;ElectoralRace</title>
<path fill="none" stroke="#e18687" d="M304.93,-904.135C311.314,-896.08 317.802,-887.893 324.202,-879.819"/>
<ellipse fill="none" stroke="#e18687" cx="302.427" cy="-907.293" rx="4.00002" ry="4.00002"/>
<polygon fill="#e18687" stroke="#e18687" points="324.353,-879.627 334.092,-874.585 327.459,-875.709 330.565,-871.79 330.565,-871.79 330.565,-871.79 327.459,-875.709 327.038,-868.995 324.353,-879.627 324.353,-879.627"/>
</g>
<!-- IssueWebsite -->
<g id="node12" class="node"><title>IssueWebsite</title>
<path fill="none" stroke="black" d="M812.34,-728C812.34,-728 919.34,-728 919.34,-728 925.34,-728 931.34,-734 931.34,-740 931.34,-740 931.34,-852 931.34,-852 931.34,-858 925.34,-864 919.34,-864 919.34,-864 812.34,-864 812.34,-864 806.34,-864 800.34,-858 800.34,-852 800.34,-852 800.34,-740 800.34,-740 800.34,-734 806.34,-728 812.34,-728"/>
<text text-anchor="middle" x="865.84" y="-848.8" font-family="Times,serif" font-size="14.00">IssueWebsite</text>
<polyline fill="none" stroke="black" points="800.34,-841 931.34,-841 "/>
<text text-anchor="start" x="808.34" y="-825.8" font-family="Times,serif" font-size="14.00">id :integer</text>
<text text-anchor="start" x="808.34" y="-810.8" font-family="Times,serif" font-size="14.00">title :string</text>
<text text-anchor="start" x="808.34" y="-795.8" font-family="Times,serif" font-size="14.00">description :string</text>
<text text-anchor="start" x="808.34" y="-780.8" font-family="Times,serif" font-size="14.00">url :string</text>
<text text-anchor="start" x="808.34" y="-765.8" font-family="Times,serif" font-size="14.00">election_id :integer</text>
<text text-anchor="start" x="808.34" y="-750.8" font-family="Times,serif" font-size="14.00">created_at :datetime</text>
<text text-anchor="start" x="808.34" y="-735.8" font-family="Times,serif" font-size="14.00">updated_at :datetime</text>
</g>
<!-- Election&#45;&gt;IssueWebsite -->
<g id="edge22" class="edge"><title>Election&#45;&gt;IssueWebsite</title>
<path fill="none" stroke="#5703ce" d="M321.774,-960.655C443.477,-924.047 671.937,-855.326 790.358,-819.705"/>
<ellipse fill="none" stroke="#5703ce" cx="317.896" cy="-961.821" rx="4.00001" ry="4.00001"/>
<polygon fill="#5703ce" stroke="#5703ce" points="790.503,-819.661 801.376,-821.09 795.291,-818.221 800.079,-816.781 800.079,-816.781 800.079,-816.781 795.291,-818.221 798.783,-812.471 790.503,-819.661 790.503,-819.661"/>
</g>
<!-- Election&#45;&gt;Candidacy -->
<g id="edge21" class="edge"><title>Election&#45;&gt;Candidacy</title>
<path fill="none" stroke="#9dca1c" d="M255.475,-900.486C264.665,-848.38 276.985,-780.229 288.84,-720 315.102,-586.577 348.364,-432.724 369.381,-337.148"/>
<polygon fill="#9dca1c" stroke="#9dca1c" points="255.471,-900.505 249.306,-909.574 254.605,-905.43 253.738,-910.354 253.738,-910.354 253.738,-910.354 254.605,-905.43 258.17,-911.134 255.471,-900.505 255.471,-900.505"/>
<polygon fill="#9dca1c" stroke="#9dca1c" points="369.416,-336.99 375.96,-328.191 370.49,-332.106 371.565,-327.223 371.565,-327.223 371.565,-327.223 370.49,-332.106 367.171,-326.256 369.416,-336.99 369.416,-336.99"/>
</g>
<!-- RegionType -->
<g id="node11" class="node"><title>RegionType</title>
<path fill="none" stroke="black" d="M365.34,-1517C365.34,-1517 472.34,-1517 472.34,-1517 478.34,-1517 484.34,-1523 484.34,-1529 484.34,-1529 484.34,-1611 484.34,-1611 484.34,-1617 478.34,-1623 472.34,-1623 472.34,-1623 365.34,-1623 365.34,-1623 359.34,-1623 353.34,-1617 353.34,-1611 353.34,-1611 353.34,-1529 353.34,-1529 353.34,-1523 359.34,-1517 365.34,-1517"/>
<text text-anchor="middle" x="418.84" y="-1607.8" font-family="Times,serif" font-size="14.00">RegionType</text>
<polyline fill="none" stroke="black" points="353.34,-1600 484.34,-1600 "/>
<text text-anchor="start" x="361.34" y="-1584.8" font-family="Times,serif" font-size="14.00">id :integer</text>
<text text-anchor="start" x="361.34" y="-1569.8" font-family="Times,serif" font-size="14.00">name :string</text>
<text text-anchor="start" x="361.34" y="-1554.8" font-family="Times,serif" font-size="14.00">description :text</text>
<text text-anchor="start" x="361.34" y="-1539.8" font-family="Times,serif" font-size="14.00">created_at :datetime</text>
<text text-anchor="start" x="361.34" y="-1524.8" font-family="Times,serif" font-size="14.00">updated_at :datetime</text>
</g>
<!-- RegionType&#45;&gt;Region -->
<g id="edge24" class="edge"><title>RegionType&#45;&gt;Region</title>
<path fill="none" stroke="#c9cee7" d="M416.061,-1508.68C413.555,-1454.29 409.811,-1373.02 406.793,-1307.52"/>
<ellipse fill="none" stroke="#c9cee7" cx="416.256" cy="-1512.92" rx="4" ry="4"/>
<polygon fill="#c9cee7" stroke="#c9cee7" points="406.776,-1307.14 410.811,-1296.94 406.546,-1302.15 406.316,-1297.15 406.316,-1297.15 406.316,-1297.15 406.546,-1302.15 401.82,-1297.36 406.776,-1307.14 406.776,-1307.14"/>
</g>
<!-- Person&#45;&gt;NewsMention -->
<g id="edge29" class="edge"><title>Person&#45;&gt;NewsMention</title>
<path fill="none" stroke="#fc10be" d="M1028.24,-372.041C1033.51,-303.804 1047.34,-224.909 1079.84,-160 1085.11,-149.484 1091.82,-139.256 1099.2,-129.622"/>
<ellipse fill="none" stroke="#fc10be" cx="1027.93" cy="-376.318" rx="4" ry="4"/>
<polygon fill="#fc10be" stroke="#fc10be" points="1099.3,-129.495 1109.05,-124.48 1102.42,-125.585 1105.53,-121.675 1105.53,-121.675 1105.53,-121.675 1102.42,-125.585 1102.02,-118.87 1099.3,-129.495 1099.3,-129.495"/>
</g>
<!-- Person&#45;&gt;NewsArticle -->
<g id="edge30" class="edge"><title>Person&#45;&gt;NewsArticle</title>
<path fill="none" stroke="#87f157" d="M1063.02,-370.972C1066.59,-362.354 1070.51,-353.97 1074.84,-346 1077.15,-341.75 1079.67,-337.542 1082.37,-333.396"/>
<polygon fill="#87f157" stroke="#87f157" points="1062.97,-371.105 1055.11,-378.752 1061.13,-375.756 1059.3,-380.406 1059.3,-380.406 1059.3,-380.406 1061.13,-375.756 1063.48,-382.059 1062.97,-371.105 1062.97,-371.105"/>
<polygon fill="#87f157" stroke="#87f157" points="1082.49,-333.23 1091.85,-327.523 1085.31,-329.105 1088.14,-324.98 1088.14,-324.98 1088.14,-324.98 1085.31,-329.105 1084.43,-322.437 1082.49,-333.23 1082.49,-333.23"/>
<text text-anchor="middle" x="1140.34" y="-350.3" font-family="Times,serif" font-size="14.00">approved_news_articles</text>
</g>
<!-- Person&#45;&gt;Candidacy -->
<g id="edge28" class="edge"><title>Person&#45;&gt;Candidacy</title>
<path fill="none" stroke="#22ab77" d="M952.264,-491.525C875.07,-453.187 752.174,-393.363 643.84,-346 588.796,-321.935 526.08,-296.973 476.74,-277.886"/>
<ellipse fill="none" stroke="#22ab77" cx="956.008" cy="-493.387" rx="4.00002" ry="4.00002"/>
<polygon fill="#22ab77" stroke="#22ab77" points="476.701,-277.871 468.992,-270.072 472.037,-276.071 467.372,-274.27 467.372,-274.27 467.372,-274.27 472.037,-276.071 465.752,-278.468 476.701,-277.871 476.701,-277.871"/>
</g>
<!-- Page -->
<g id="node15" class="node"><title>Page</title>
<path fill="none" stroke="black" d="M673.34,-1123.5C673.34,-1123.5 834.34,-1123.5 834.34,-1123.5 840.34,-1123.5 846.34,-1129.5 846.34,-1135.5 846.34,-1135.5 846.34,-1262.5 846.34,-1262.5 846.34,-1268.5 840.34,-1274.5 834.34,-1274.5 834.34,-1274.5 673.34,-1274.5 673.34,-1274.5 667.34,-1274.5 661.34,-1268.5 661.34,-1262.5 661.34,-1262.5 661.34,-1135.5 661.34,-1135.5 661.34,-1129.5 667.34,-1123.5 673.34,-1123.5"/>
<text text-anchor="middle" x="753.84" y="-1259.3" font-family="Times,serif" font-size="14.00">Page</text>
<polyline fill="none" stroke="black" points="661.34,-1251.5 846.34,-1251.5 "/>
<text text-anchor="start" x="669.34" y="-1236.3" font-family="Times,serif" font-size="14.00">id :integer</text>
<text text-anchor="start" x="669.34" y="-1221.3" font-family="Times,serif" font-size="14.00">title :string</text>
<text text-anchor="start" x="669.34" y="-1206.3" font-family="Times,serif" font-size="14.00">content :text</text>
<text text-anchor="start" x="669.34" y="-1191.3" font-family="Times,serif" font-size="14.00">permalink :string</text>
<text text-anchor="start" x="669.34" y="-1176.3" font-family="Times,serif" font-size="14.00">show_title :boolean</text>
<text text-anchor="start" x="669.34" y="-1161.3" font-family="Times,serif" font-size="14.00">created_at :datetime</text>
<text text-anchor="start" x="669.34" y="-1146.3" font-family="Times,serif" font-size="14.00">updated_at :datetime</text>
<text text-anchor="start" x="669.34" y="-1131.3" font-family="Times,serif" font-size="14.00">navigation_heading_id :integer</text>
</g>
<!-- NavigationHeading -->
<g id="node16" class="node"><title>NavigationHeading</title>
<path fill="none" stroke="black" d="M514.34,-1502C514.34,-1502 675.34,-1502 675.34,-1502 681.34,-1502 687.34,-1508 687.34,-1514 687.34,-1514 687.34,-1626 687.34,-1626 687.34,-1632 681.34,-1638 675.34,-1638 675.34,-1638 514.34,-1638 514.34,-1638 508.34,-1638 502.34,-1632 502.34,-1626 502.34,-1626 502.34,-1514 502.34,-1514 502.34,-1508 508.34,-1502 514.34,-1502"/>
<text text-anchor="middle" x="594.84" y="-1622.8" font-family="Times,serif" font-size="14.00">NavigationHeading</text>
<polyline fill="none" stroke="black" points="502.34,-1615 687.34,-1615 "/>
<text text-anchor="start" x="510.34" y="-1599.8" font-family="Times,serif" font-size="14.00">id :integer</text>
<text text-anchor="start" x="510.34" y="-1584.8" font-family="Times,serif" font-size="14.00">name :string</text>
<text text-anchor="start" x="510.34" y="-1569.8" font-family="Times,serif" font-size="14.00">created_at :datetime</text>
<text text-anchor="start" x="510.34" y="-1554.8" font-family="Times,serif" font-size="14.00">updated_at :datetime</text>
<text text-anchor="start" x="510.34" y="-1539.8" font-family="Times,serif" font-size="14.00">url :string</text>
<text text-anchor="start" x="510.34" y="-1524.8" font-family="Times,serif" font-size="14.00">display_order :float</text>
<text text-anchor="start" x="510.34" y="-1509.8" font-family="Times,serif" font-size="14.00">navigation_heading_id :integer</text>
</g>
<!-- NavigationHeading&#45;&gt;ElectoralRace -->
<g id="edge34" class="edge"><title>NavigationHeading&#45;&gt;ElectoralRace</title>
<path fill="none" stroke="#8f9916" d="M602.232,-1493.56C608.982,-1399.27 612.54,-1233.96 571.84,-1100 547.357,-1019.41 496.812,-938.144 455.189,-880.087"/>
<ellipse fill="none" stroke="#8f9916" cx="601.93" cy="-1497.64" rx="4" ry="4"/>
<polygon fill="#8f9916" stroke="#8f9916" points="454.977,-879.795 452.762,-869.055 452.047,-875.743 449.116,-871.692 449.116,-871.692 449.116,-871.692 452.047,-875.743 445.47,-874.33 454.977,-879.795 454.977,-879.795"/>
</g>
<!-- NavigationHeading&#45;&gt;Page -->
<g id="edge33" class="edge"><title>NavigationHeading&#45;&gt;Page</title>
<path fill="none" stroke="#857ebf" d="M627.118,-1494.09C653.331,-1433.26 690.286,-1347.49 717.527,-1284.27"/>
<ellipse fill="none" stroke="#857ebf" cx="625.401" cy="-1498.08" rx="4.00002" ry="4.00002"/>
<polygon fill="#857ebf" stroke="#857ebf" points="717.686,-1283.9 725.776,-1276.5 719.664,-1279.31 721.643,-1274.72 721.643,-1274.72 721.643,-1274.72 719.664,-1279.31 717.51,-1272.94 717.686,-1283.9 717.686,-1283.9"/>
</g>
<!-- NavigationHeading&#45;&gt;NavigationHeading -->
<g id="edge35" class="edge"><title>NavigationHeading&#45;&gt;NavigationHeading</title>
<path fill="none" stroke="#5d829a" d="M695.058,-1587.2C701.168,-1583.12 704.84,-1577.38 704.84,-1570 704.84,-1563.24 701.767,-1557.87 696.564,-1553.88"/>
<ellipse fill="none" stroke="#5d829a" cx="691.103" cy="-1589.18" rx="4.00002" ry="4.00002"/>
<polygon fill="#5d829a" stroke="#5d829a" points="696.336,-1553.76 689.658,-1545.06 691.932,-1551.39 687.528,-1549.03 687.528,-1549.03 687.528,-1549.03 691.932,-1551.39 685.398,-1552.99 696.336,-1553.76 696.336,-1553.76"/>
<text text-anchor="middle" x="741.84" y="-1566.3" font-family="Times,serif" font-size="14.00">sub_headings</text>
</g>
<!-- ActiveRecord::Base -->
<g id="node17" class="node"><title>ActiveRecord::Base</title>
<ellipse fill="none" stroke="black" cx="594.84" cy="-1761" rx="81.3646" ry="18"/>
<text text-anchor="middle" x="594.84" y="-1757.3" font-family="Times,serif" font-size="14.00">ActiveRecord::Base</text>
</g>
<!-- ActiveRecord::Base&#45;&gt;Region -->
<g id="edge5" class="edge"><title>ActiveRecord::Base&#45;&gt;Region</title>
<path fill="none" stroke="black" d="M561.192,-1744.42C544.236,-1736.97 523.211,-1728.31 503.84,-1722 434.76,-1699.48 389.851,-1741.04 344.84,-1684 298.977,-1625.88 342.453,-1421.05 374.557,-1297.25"/>
</g>
<!-- ActiveRecord::Base&#45;&gt;ElectoralRace -->
<g id="edge8" class="edge"><title>ActiveRecord::Base&#45;&gt;ElectoralRace</title>
<path fill="none" stroke="black" d="M564.55,-1744.24C547.253,-1736.04 524.879,-1726.76 503.84,-1722 454.901,-1710.92 87.7061,-1721.03 53.8399,-1684 19.6464,-1646.62 38.8399,-1621.66 38.8399,-1571 38.8399,-1571 38.8399,-1571 38.8399,-985 38.8399,-867.655 193.169,-823.269 297.16,-806.681"/>
</g>
<!-- ActiveRecord::Base&#45;&gt;AdminUser -->
<g id="edge9" class="edge"><title>ActiveRecord::Base&#45;&gt;AdminUser</title>
<path fill="none" stroke="black" d="M668.549,-1753.44C715.279,-1746.58 775.44,-1732.58 821.84,-1704 831.55,-1698.02 840.862,-1690.94 849.684,-1683.2"/>
</g>
<!-- ActiveRecord::Base&#45;&gt;ImageMap -->
<g id="edge12" class="edge"><title>ActiveRecord::Base&#45;&gt;ImageMap</title>
<path fill="none" stroke="black" d="M563.638,-1744.21C546.433,-1736.21 524.439,-1727.13 503.84,-1722 462.044,-1711.58 347.964,-1725.85 310.84,-1704 282.387,-1687.26 260.83,-1657.69 245.856,-1630.68"/>
</g>
<!-- ActiveRecord::Base&#45;&gt;NewsMention -->
<g id="edge13" class="edge"><title>ActiveRecord::Base&#45;&gt;NewsMention</title>
<path fill="none" stroke="black" d="M676.053,-1759.74C829.539,-1757.77 1154.97,-1746.15 1245.84,-1684 1295.8,-1649.83 1321.84,-1631.52 1321.84,-1571 1321.84,-1571 1321.84,-1571 1321.84,-243 1321.84,-189.098 1281.78,-142.966 1242.65,-110.766"/>
</g>
<!-- ActiveRecord::Base&#45;&gt;ImageMapPolygon -->
<g id="edge14" class="edge"><title>ActiveRecord::Base&#45;&gt;ImageMapPolygon</title>
<path fill="none" stroke="black" d="M563.642,-1744.19C546.438,-1736.19 524.444,-1727.12 503.84,-1722 423.62,-1702.08 188.827,-1745.71 133.84,-1684 79.139,-1622.61 138.729,-1375.12 170.517,-1259.75"/>
</g>
<!-- ActiveRecord::Base&#45;&gt;NewsArticle -->
<g id="edge17" class="edge"><title>ActiveRecord::Base&#45;&gt;NewsArticle</title>
<path fill="none" stroke="black" d="M675.318,-1758.47C816.274,-1754.37 1100.5,-1739.28 1180.84,-1684 1236.82,-1645.48 1283.84,-1638.95 1283.84,-1571 1283.84,-1571 1283.84,-1571 1283.84,-530 1283.84,-457.837 1251.74,-382.374 1221.46,-327.241"/>
</g>
<!-- ActiveRecord::Base&#45;&gt;NewsSource -->
<g id="edge19" class="edge"><title>ActiveRecord::Base&#45;&gt;NewsSource</title>
<path fill="none" stroke="black" d="M673.597,-1756.49C811.072,-1749.66 1083.37,-1732.65 1115.84,-1704 1191.28,-1637.44 1199.92,-1511.96 1197.6,-1437.59"/>
</g>
<!-- ActiveRecord::Base&#45;&gt;Election -->
<g id="edge23" class="edge"><title>ActiveRecord::Base&#45;&gt;Election</title>
<path fill="none" stroke="black" d="M564.546,-1744.26C547.247,-1736.07 524.874,-1726.79 503.84,-1722 353.693,-1687.83 308.239,-1737.04 157.84,-1704 134.463,-1698.86 121.437,-1703.7 107.84,-1684 34.1061,-1577.19 44.8715,-1217.1 100.84,-1100 115.118,-1070.13 141.574,-1045.62 167.676,-1027.16"/>
</g>
<!-- ActiveRecord::Base&#45;&gt;RegionType -->
<g id="edge25" class="edge"><title>ActiveRecord::Base&#45;&gt;RegionType</title>
<path fill="none" stroke="black" d="M568.41,-1743.74C546.802,-1729.64 516.267,-1707.79 493.84,-1684 476.721,-1665.84 460.92,-1643.34 448.281,-1623.22"/>
</g>
<!-- ActiveRecord::Base&#45;&gt;IssueWebsite -->
<g id="edge26" class="edge"><title>ActiveRecord::Base&#45;&gt;IssueWebsite</title>
<path fill="none" stroke="black" d="M674.553,-1757.34C789.626,-1751.76 994.086,-1734.79 1044.84,-1684 1080.84,-1647.98 1063.84,-1621.93 1063.84,-1571 1063.84,-1571 1063.84,-1571 1063.84,-985 1063.84,-910.461 989.132,-856.559 931.496,-826.066"/>
</g>
<!-- ActiveRecord::Base&#45;&gt;Candidacy -->
<g id="edge27" class="edge"><title>ActiveRecord::Base&#45;&gt;Candidacy</title>
<path fill="none" stroke="black" d="M564.557,-1744.21C547.262,-1736 524.888,-1726.73 503.84,-1722 452.287,-1710.43 67.5253,-1721.03 29.8399,-1684 -7.14234,-1647.66 0.839855,-1622.85 0.839855,-1571 0.839855,-1571 0.839855,-1571 0.839855,-530 0.839855,-377.21 198.535,-297.424 312.055,-264.205"/>
</g>
<!-- ActiveRecord::Base&#45;&gt;Person -->
<g id="edge31" class="edge"><title>ActiveRecord::Base&#45;&gt;Person</title>
<path fill="none" stroke="black" d="M674.204,-1757.22C762.231,-1752.43 907.687,-1739.4 1027.84,-1704 1047.67,-1698.16 1056.5,-1699.8 1069.84,-1684 1103.51,-1644.12 1101.84,-1623.2 1101.84,-1571 1101.84,-1571 1101.84,-1571 1101.84,-795 1101.84,-757.565 1094.89,-718.189 1085.28,-681.635"/>
</g>
<!-- ActiveRecord::Base&#45;&gt;Page -->
<g id="edge32" class="edge"><title>ActiveRecord::Base&#45;&gt;Page</title>
<path fill="none" stroke="black" d="M665.573,-1751.95C708.688,-1742.98 760.578,-1724.03 787.84,-1684 831.873,-1619.34 794.107,-1393.7 770.063,-1274.73"/>
</g>
<!-- ActiveRecord::Base&#45;&gt;NavigationHeading -->
<g id="edge36" class="edge"><title>ActiveRecord::Base&#45;&gt;NavigationHeading</title>
<path fill="none" stroke="black" d="M594.84,-1742.89C594.84,-1719.36 594.84,-1675.65 594.84,-1638.2"/>
</g>
</g>
</svg>
