<?xml version="1.0" encoding="UTF-8" standalone="no"?>
<!DOCTYPE svg PUBLIC "-//W3C//DTD SVG 1.1//EN"
 "http://www.w3.org/Graphics/SVG/1.1/DTD/svg11.dtd">
<!-- Generated by graphviz version 2.36.0 (20140111.2315)
 -->
<!-- Title: models_diagram Pages: 1 -->
<svg width="1086pt" height="652pt"
 viewBox="0.00 0.00 1086.00 652.00" xmlns="http://www.w3.org/2000/svg" xmlns:xlink="http://www.w3.org/1999/xlink">
<g id="graph0" class="graph" transform="scale(1 1) rotate(0) translate(4 648)">
<title>models_diagram</title>
<polygon fill="white" stroke="none" points="-4,4 -4,-648 1082,-648 1082,4 -4,4"/>
<!-- _diagram_info -->
<g id="node1" class="node"><title>_diagram_info</title>
<text text-anchor="start" x="198" y="-629.6" font-family="Times,serif" font-size="13.00">Models diagram</text>
<text text-anchor="start" x="198" y="-615.6" font-family="Times,serif" font-size="13.00">Date: May 21 2018 &#45; 08:49</text>
<text text-anchor="start" x="198" y="-601.6" font-family="Times,serif" font-size="13.00">Migration version: 20141007224350</text>
<text text-anchor="start" x="198" y="-587.6" font-family="Times,serif" font-size="13.00">Generated by RailRoady 1.1.2</text>
<text text-anchor="start" x="198" y="-573.6" font-family="Times,serif" font-size="13.00">http://railroady.prestonlee.com</text>
</g>
<!-- Region -->
<g id="node2" class="node"><title>Region</title>
<ellipse fill="none" stroke="black" cx="354" cy="-402" rx="36.096" ry="18"/>
<text text-anchor="middle" x="354" y="-398.3" font-family="Times,serif" font-size="14.00">Region</text>
</g>
<!-- Region&#45;&gt;Region -->
<g id="edge4" class="edge"><title>Region&#45;&gt;Region</title>
<path fill="none" stroke="#4ac7e4" d="M396.112,-408.274C403.146,-407.396 408,-405.305 408,-402 408,-398.977 403.937,-396.969 397.859,-395.977"/>
<ellipse fill="none" stroke="#4ac7e4" cx="391.744" cy="-408.523" rx="4" ry="4"/>
<polygon fill="#4ac7e4" stroke="#4ac7e4" points="397.724,-395.967 388.073,-390.762 392.737,-395.609 387.75,-395.25 387.75,-395.25 387.75,-395.25 392.737,-395.609 387.427,-399.738 397.724,-395.967 397.724,-395.967"/>
<text text-anchor="middle" x="441" y="-398.3" font-family="Times,serif" font-size="14.00">sub_regions</text>
</g>
<!-- ElectoralRace -->
<g id="node3" class="node"><title>ElectoralRace</title>
<ellipse fill="none" stroke="black" cx="337" cy="-254" rx="59.1941" ry="18"/>
<text text-anchor="middle" x="337" y="-250.3" font-family="Times,serif" font-size="14.00">ElectoralRace</text>
</g>
<!-- Region&#45;&gt;ElectoralRace -->
<g id="edge1" class="edge"><title>Region&#45;&gt;ElectoralRace</title>
<path fill="none" stroke="#8decb4" d="M351.066,-375.8C348.042,-349.827 343.34,-309.449 340.216,-282.622"/>
<ellipse fill="none" stroke="#8decb4" cx="351.554" cy="-379.993" rx="4.00001" ry="4.00001"/>
<polygon fill="#8decb4" stroke="#8decb4" points="340.18,-282.311 343.493,-271.857 339.602,-277.344 339.023,-272.378 339.023,-272.378 339.023,-272.378 339.602,-277.344 334.554,-272.898 340.18,-282.311 340.18,-282.311"/>
</g>
<!-- Election -->
<g id="node10" class="node"><title>Election</title>
<ellipse fill="none" stroke="black" cx="235" cy="-328" rx="39.9464" ry="18"/>
<text text-anchor="middle" x="235" y="-324.3" font-family="Times,serif" font-size="14.00">Election</text>
</g>
<!-- Region&#45;&gt;Election -->
<g id="edge2" class="edge"><title>Region&#45;&gt;Election</title>
<path fill="none" stroke="#b63079" d="M323.31,-382.431C306.014,-371.966 284.435,-358.91 266.938,-348.324"/>
<polygon fill="#b63079" stroke="#b63079" points="323.34,-382.449 329.566,-391.476 327.618,-385.038 331.896,-387.626 331.896,-387.626 331.896,-387.626 327.618,-385.038 334.225,-383.776 323.34,-382.449 323.34,-382.449"/>
<polygon fill="#b63079" stroke="#b63079" points="266.761,-348.217 260.534,-339.19 262.483,-345.628 258.205,-343.04 258.205,-343.04 258.205,-343.04 262.483,-345.628 255.875,-346.89 266.761,-348.217 266.761,-348.217"/>
</g>
<!-- Candidacy -->
<g id="node13" class="node"><title>Candidacy</title>
<ellipse fill="none" stroke="black" cx="337" cy="-92" rx="48.1437" ry="18"/>
<text text-anchor="middle" x="337" y="-88.3" font-family="Times,serif" font-size="14.00">Candidacy</text>
</g>
<!-- Region&#45;&gt;Candidacy -->
<g id="edge3" class="edge"><title>Region&#45;&gt;Candidacy</title>
<path fill="none" stroke="#aab0e0" d="M397.541,-393.146C452.513,-381.966 540,-359.397 540,-329 540,-329 540,-329 540,-179 540,-115.681 455.23,-98.2845 395.248,-93.9002"/>
<polygon fill="#aab0e0" stroke="#aab0e0" points="397.492,-393.156 386.808,-390.687 392.588,-394.128 387.683,-395.101 387.683,-395.101 387.683,-395.101 392.588,-394.128 388.558,-399.515 397.492,-393.156 397.492,-393.156"/>
<polygon fill="#aab0e0" stroke="#aab0e0" points="395.089,-93.8903 385.39,-88.7724 390.098,-93.577 385.108,-93.2636 385.108,-93.2636 385.108,-93.2636 390.098,-93.577 384.826,-97.7548 395.089,-93.8903 395.089,-93.8903"/>
</g>
<!-- ElectoralRace&#45;&gt;Candidacy -->
<g id="edge6" class="edge"><title>ElectoralRace&#45;&gt;Candidacy</title>
<path fill="none" stroke="#c10d8a" d="M337,-227.704C337,-198.565 337,-150.845 337,-120.72"/>
<ellipse fill="none" stroke="#c10d8a" cx="337" cy="-231.877" rx="4" ry="4"/>
<polygon fill="#c10d8a" stroke="#c10d8a" points="337,-120.485 341.5,-110.485 337,-115.485 337,-110.485 337,-110.485 337,-110.485 337,-115.485 332.5,-110.485 337,-120.485 337,-120.485"/>
</g>
<!-- Person -->
<g id="node14" class="node"><title>Person</title>
<ellipse fill="none" stroke="black" cx="795" cy="-180" rx="34.1708" ry="18"/>
<text text-anchor="middle" x="795" y="-176.3" font-family="Times,serif" font-size="14.00">Person</text>
</g>
<!-- ElectoralRace&#45;&gt;Person -->
<g id="edge7" class="edge"><title>ElectoralRace&#45;&gt;Person</title>
<path fill="none" stroke="#f65248" d="M398.772,-243.289C493.194,-228.445 671.015,-200.491 752.392,-187.698"/>
<polygon fill="#f65248" stroke="#f65248" points="398.527,-243.328 387.949,-240.435 393.587,-244.104 388.648,-244.881 388.648,-244.881 388.648,-244.881 393.587,-244.104 389.347,-249.326 398.527,-243.328 398.527,-243.328"/>
<polygon fill="#f65248" stroke="#f65248" points="752.874,-187.622 763.452,-190.515 757.814,-186.846 762.753,-186.069 762.753,-186.069 762.753,-186.069 757.814,-186.846 762.054,-181.624 752.874,-187.622 752.874,-187.622"/>
</g>
<!-- AdminUser -->
<g id="node4" class="node"><title>AdminUser</title>
<ellipse fill="none" stroke="black" cx="782" cy="-510" rx="51.4931" ry="18"/>
<text text-anchor="middle" x="782" y="-506.3" font-family="Times,serif" font-size="14.00">AdminUser</text>
</g>
<!-- ImageMap -->
<g id="node5" class="node"><title>ImageMap</title>
<ellipse fill="none" stroke="black" cx="192" cy="-510" rx="50.0684" ry="18"/>
<text text-anchor="middle" x="192" y="-506.3" font-family="Times,serif" font-size="14.00">ImageMap</text>
</g>
<!-- ImageMap&#45;&gt;ElectoralRace -->
<g id="edge11" class="edge"><title>ImageMap&#45;&gt;ElectoralRace</title>
<path fill="none" stroke="#5167d3" d="M216.74,-485.759C233.721,-468.787 255.844,-444.543 271,-420 298.913,-374.8 319.136,-315.758 329.385,-281.942"/>
<polygon fill="#5167d3" stroke="#5167d3" points="216.479,-486.015 206.19,-489.809 212.911,-489.517 209.342,-493.02 209.342,-493.02 209.342,-493.02 212.911,-489.517 212.495,-496.231 216.479,-486.015 216.479,-486.015"/>
<polygon fill="#5167d3" stroke="#5167d3" points="329.401,-281.889 336.558,-273.58 330.822,-277.095 332.243,-272.301 332.243,-272.301 332.243,-272.301 330.822,-277.095 327.929,-271.022 329.401,-281.889 329.401,-281.889"/>
</g>
<!-- ImageMapPolygon -->
<g id="node7" class="node"><title>ImageMapPolygon</title>
<ellipse fill="none" stroke="black" cx="183" cy="-402" rx="78.9404" ry="18"/>
<text text-anchor="middle" x="183" y="-398.3" font-family="Times,serif" font-size="14.00">ImageMapPolygon</text>
</g>
<!-- ImageMap&#45;&gt;ImageMapPolygon -->
<g id="edge10" class="edge"><title>ImageMap&#45;&gt;ImageMapPolygon</title>
<path fill="none" stroke="#2ba155" d="M189.86,-483.795C188.496,-467.735 186.73,-446.927 185.331,-430.45"/>
<ellipse fill="none" stroke="#2ba155" cx="190.216" cy="-487.984" rx="4" ry="4"/>
<polygon fill="#2ba155" stroke="#2ba155" points="185.318,-430.305 188.956,-419.96 184.895,-425.323 184.472,-420.341 184.472,-420.341 184.472,-420.341 184.895,-425.323 179.988,-420.721 185.318,-430.305 185.318,-430.305"/>
</g>
<!-- NewsMention -->
<g id="node6" class="node"><title>NewsMention</title>
<ellipse fill="none" stroke="black" cx="925" cy="-18" rx="61.1419" ry="18"/>
<text text-anchor="middle" x="925" y="-14.3" font-family="Times,serif" font-size="14.00">NewsMention</text>
</g>
<!-- NewsArticle -->
<g id="node8" class="node"><title>NewsArticle</title>
<ellipse fill="none" stroke="black" cx="925" cy="-92" rx="55.3682" ry="18"/>
<text text-anchor="middle" x="925" y="-88.3" font-family="Times,serif" font-size="14.00">NewsArticle</text>
</g>
<!-- NewsArticle&#45;&gt;NewsMention -->
<g id="edge15" class="edge"><title>NewsArticle&#45;&gt;NewsMention</title>
<path fill="none" stroke="#819ccc" d="M925,-65.7923C925,-59.5805 925,-52.8963 925,-46.5786"/>
<ellipse fill="none" stroke="#819ccc" cx="925" cy="-69.937" rx="4" ry="4"/>
<polygon fill="#819ccc" stroke="#819ccc" points="925,-46.4407 929.5,-36.4406 925,-41.4407 925,-36.4407 925,-36.4407 925,-36.4407 925,-41.4407 920.5,-36.4407 925,-46.4407 925,-46.4407"/>
</g>
<!-- NewsArticle&#45;&gt;Person -->
<g id="edge16" class="edge"><title>NewsArticle&#45;&gt;Person</title>
<path fill="none" stroke="#7aeb9d" d="M867.041,-103.888C850.787,-109.102 834.019,-116.765 821,-128 813.565,-134.416 807.996,-143.477 803.961,-152.186"/>
<polygon fill="#7aeb9d" stroke="#7aeb9d" points="867.462,-103.764 878.325,-105.266 872.26,-102.356 877.057,-100.948 877.057,-100.948 877.057,-100.948 872.26,-102.356 875.79,-96.6301 867.462,-103.764 867.462,-103.764"/>
<polygon fill="#7aeb9d" stroke="#7aeb9d" points="803.847,-152.462 795.877,-159.994 801.942,-157.085 800.038,-161.708 800.038,-161.708 800.038,-161.708 801.942,-157.085 804.198,-163.423 803.847,-152.462 803.847,-152.462"/>
</g>
<!-- NewsSource -->
<g id="node9" class="node"><title>NewsSource</title>
<ellipse fill="none" stroke="black" cx="970" cy="-456" rx="55.3682" ry="18"/>
<text text-anchor="middle" x="970" y="-452.3" font-family="Times,serif" font-size="14.00">NewsSource</text>
</g>
<!-- NewsSource&#45;&gt;NewsArticle -->
<g id="edge18" class="edge"><title>NewsSource&#45;&gt;NewsArticle</title>
<path fill="none" stroke="#7c52de" d="M977.031,-429.651C981.326,-411.96 986,-387.721 986,-366 986,-366 986,-366 986,-179 986,-155.495 985.259,-147.409 972,-128 968.618,-123.049 964.302,-118.522 959.661,-114.487"/>
<ellipse fill="none" stroke="#7c52de" cx="975.957" cy="-433.892" rx="4.00001" ry="4.00001"/>
<polygon fill="#7c52de" stroke="#7c52de" points="959.505,-114.364 954.439,-104.639 955.579,-111.269 951.652,-108.173 951.652,-108.173 951.652,-108.173 955.579,-111.269 948.866,-111.706 959.505,-114.364 959.505,-114.364"/>
</g>
<!-- Election&#45;&gt;ElectoralRace -->
<g id="edge20" class="edge"><title>Election&#45;&gt;ElectoralRace</title>
<path fill="none" stroke="#cf2c28" d="M262.368,-307.681C275.911,-298.121 292.309,-286.546 306.281,-276.684"/>
<ellipse fill="none" stroke="#cf2c28" cx="258.909" cy="-310.123" rx="4.00002" ry="4.00002"/>
<polygon fill="#cf2c28" stroke="#cf2c28" points="306.45,-276.565 317.215,-274.474 310.535,-273.681 314.62,-270.798 314.62,-270.798 314.62,-270.798 310.535,-273.681 312.025,-267.122 306.45,-276.565 306.45,-276.565"/>
</g>
<!-- IssueWebsite -->
<g id="node12" class="node"><title>IssueWebsite</title>
<ellipse fill="none" stroke="black" cx="720" cy="-254" rx="57.2688" ry="18"/>
<text text-anchor="middle" x="720" y="-250.3" font-family="Times,serif" font-size="14.00">IssueWebsite</text>
</g>
<!-- Election&#45;&gt;IssueWebsite -->
<g id="edge22" class="edge"><title>Election&#45;&gt;IssueWebsite</title>
<path fill="none" stroke="#dd2d74" d="M280.836,-320.195C368.654,-307.159 560.627,-278.66 659.094,-264.042"/>
<ellipse fill="none" stroke="#dd2d74" cx="276.61" cy="-320.823" rx="4.00001" ry="4.00001"/>
<polygon fill="#dd2d74" stroke="#dd2d74" points="659.296,-264.012 669.849,-266.994 664.242,-263.278 669.188,-262.543 669.188,-262.543 669.188,-262.543 664.242,-263.278 668.527,-258.092 659.296,-264.012 659.296,-264.012"/>
</g>
<!-- Election&#45;&gt;Candidacy -->
<g id="edge21" class="edge"><title>Election&#45;&gt;Candidacy</title>
<path fill="none" stroke="#7dfa5d" d="M243.868,-300.338C250.144,-282.051 259.013,-257.331 268,-236 285.519,-194.415 308.847,-147.541 323.391,-119.146"/>
<polygon fill="#7dfa5d" stroke="#7dfa5d" points="243.792,-300.561 236.316,-308.583 242.184,-305.295 240.577,-310.03 240.577,-310.03 240.577,-310.03 242.184,-305.295 244.838,-311.477 243.792,-300.561 243.792,-300.561"/>
<polygon fill="#7dfa5d" stroke="#7dfa5d" points="323.568,-118.803 332.146,-111.972 325.857,-114.357 328.145,-109.912 328.145,-109.912 328.145,-109.912 325.857,-114.357 324.145,-107.852 323.568,-118.803 323.568,-118.803"/>
</g>
<!-- RegionType -->
<g id="node11" class="node"><title>RegionType</title>
<ellipse fill="none" stroke="black" cx="352" cy="-510" rx="53.4184" ry="18"/>
<text text-anchor="middle" x="352" y="-506.3" font-family="Times,serif" font-size="14.00">RegionType</text>
</g>
<!-- RegionType&#45;&gt;Region -->
<g id="edge24" class="edge"><title>RegionType&#45;&gt;Region</title>
<path fill="none" stroke="#bac6b6" d="M352.476,-483.795C352.779,-467.735 353.171,-446.927 353.482,-430.45"/>
<ellipse fill="none" stroke="#bac6b6" cx="352.397" cy="-487.97" rx="4" ry="4"/>
<polygon fill="#bac6b6" stroke="#bac6b6" points="353.484,-430.339 358.172,-420.426 353.578,-425.34 353.673,-420.341 353.673,-420.341 353.673,-420.341 353.578,-425.34 349.174,-420.256 353.484,-430.339 353.484,-430.339"/>
</g>
<!-- Person&#45;&gt;NewsMention -->
<g id="edge29" class="edge"><title>Person&#45;&gt;NewsMention</title>
<path fill="none" stroke="#b391cb" d="M796.302,-153.436C797.552,-144.957 799.847,-135.72 804,-128 824.211,-90.4292 862.634,-59.2802 890.778,-40.0353"/>
<ellipse fill="none" stroke="#b391cb" cx="795.825" cy="-157.604" rx="4.00001" ry="4.00001"/>
<polygon fill="#b391cb" stroke="#b391cb" points="890.831,-39.9997 901.647,-38.1948 894.991,-37.2254 899.15,-34.451 899.15,-34.451 899.15,-34.451 894.991,-37.2254 896.654,-30.7073 890.831,-39.9997 890.831,-39.9997"/>
</g>
<!-- Person&#45;&gt;NewsArticle -->
<g id="edge30" class="edge"><title>Person&#45;&gt;NewsArticle</title>
<path fill="none" stroke="#bbdba3" d="M812.745,-155.104C820.608,-145.731 830.461,-135.458 841,-128 851.786,-120.367 864.491,-113.985 876.71,-108.853"/>
<polygon fill="#bbdba3" stroke="#bbdba3" points="812.65,-155.223 802.875,-160.195 809.516,-159.119 806.382,-163.015 806.382,-163.015 806.382,-163.015 809.516,-159.119 809.888,-165.836 812.65,-155.223 812.65,-155.223"/>
<polygon fill="#bbdba3" stroke="#bbdba3" points="877.07,-108.709 888.025,-109.184 881.714,-106.856 886.358,-105.004 886.358,-105.004 886.358,-105.004 881.714,-106.856 884.691,-100.824 877.07,-108.709 877.07,-108.709"/>
<text text-anchor="middle" x="906.5" y="-132.3" font-family="Times,serif" font-size="14.00">approved_news_articles</text>
</g>
<!-- Person&#45;&gt;Candidacy -->
<g id="edge28" class="edge"><title>Person&#45;&gt;Candidacy</title>
<path fill="none" stroke="#81e4a7" d="M756.405,-170.228C708.91,-159.572 625.738,-141.368 554,-128 498.662,-117.688 435.049,-107.639 391.07,-100.974"/>
<ellipse fill="none" stroke="#81e4a7" cx="760.378" cy="-171.121" rx="4.00001" ry="4.00001"/>
<polygon fill="#81e4a7" stroke="#81e4a7" points="391.052,-100.971 381.835,-95.0299 386.108,-100.225 381.163,-99.4796 381.163,-99.4796 381.163,-99.4796 386.108,-100.225 380.492,-103.929 391.052,-100.971 391.052,-100.971"/>
</g>
<!-- Page -->
<g id="node15" class="node"><title>Page</title>
<ellipse fill="none" stroke="black" cx="660" cy="-402" rx="27.4223" ry="18"/>
<text text-anchor="middle" x="660" y="-398.3" font-family="Times,serif" font-size="14.00">Page</text>
</g>
<!-- NavigationHeading -->
<g id="node16" class="node"><title>NavigationHeading</title>
<ellipse fill="none" stroke="black" cx="503" cy="-510" rx="78.9404" ry="18"/>
<text text-anchor="middle" x="503" y="-506.3" font-family="Times,serif" font-size="14.00">NavigationHeading</text>
</g>
<!-- NavigationHeading&#45;&gt;ElectoralRace -->
<g id="edge34" class="edge"><title>NavigationHeading&#45;&gt;ElectoralRace</title>
<path fill="none" stroke="#c7e8c2" d="M503.833,-483.641C503.629,-457.183 500.204,-415.277 483,-384 456.887,-336.527 406.289,-297.957 372.073,-275.735"/>
<ellipse fill="none" stroke="#c7e8c2" cx="503.816" cy="-487.655" rx="4" ry="4"/>
<polygon fill="#c7e8c2" stroke="#c7e8c2" points="371.762,-275.537 365.734,-266.376 367.541,-272.856 363.321,-270.174 363.321,-270.174 363.321,-270.174 367.541,-272.856 360.908,-273.973 371.762,-275.537 371.762,-275.537"/>
</g>
<!-- NavigationHeading&#45;&gt;Page -->
<g id="edge33" class="edge"><title>NavigationHeading&#45;&gt;Page</title>
<path fill="none" stroke="#4df317" d="M534.15,-487.969C563.054,-468.454 605.632,-439.707 633.092,-421.167"/>
<ellipse fill="none" stroke="#4df317" cx="530.502" cy="-490.432" rx="4.00002" ry="4.00002"/>
<polygon fill="#4df317" stroke="#4df317" points="633.152,-421.127 643.958,-419.26 637.296,-418.329 641.44,-415.531 641.44,-415.531 641.44,-415.531 637.296,-418.329 638.922,-411.801 633.152,-421.127 633.152,-421.127"/>
</g>
<!-- NavigationHeading&#45;&gt;NavigationHeading -->
<g id="edge35" class="edge"><title>NavigationHeading&#45;&gt;NavigationHeading</title>
<path fill="none" stroke="#e129b0" d="M585.243,-515.66C594.216,-514.578 600,-512.692 600,-510 600,-507.497 594.997,-505.69 587.079,-504.579"/>
<ellipse fill="none" stroke="#e129b0" cx="580.997" cy="-516.031" rx="4" ry="4"/>
<polygon fill="#e129b0" stroke="#e129b0" points="586.967,-504.568 577.438,-499.141 581.989,-504.095 577.012,-503.621 577.012,-503.621 577.012,-503.621 581.989,-504.095 576.585,-508.101 586.967,-504.568 586.967,-504.568"/>
<text text-anchor="middle" x="637" y="-506.3" font-family="Times,serif" font-size="14.00">sub_headings</text>
</g>
<!-- ActiveRecord::Base -->
<g id="node17" class="node"><title>ActiveRecord::Base</title>
<ellipse fill="none" stroke="black" cx="503" cy="-605" rx="81.3646" ry="18"/>
<text text-anchor="middle" x="503" y="-601.3" font-family="Times,serif" font-size="14.00">ActiveRecord::Base</text>
</g>
<!-- ActiveRecord::Base&#45;&gt;Region -->
<g id="edge5" class="edge"><title>ActiveRecord::Base&#45;&gt;Region</title>
<path fill="none" stroke="black" d="M468.306,-588.592C451.46,-581.347 430.833,-572.824 412,-566 358.206,-546.509 322.966,-574.043 289,-528 261.992,-491.388 308.543,-441.991 336.02,-417.715"/>
</g>
<!-- ActiveRecord::Base&#45;&gt;ElectoralRace -->
<g id="edge8" class="edge"><title>ActiveRecord::Base&#45;&gt;ElectoralRace</title>
<path fill="none" stroke="black" d="M472.264,-588.188C455.015,-580.084 432.83,-570.909 412,-566 330.235,-546.731 38,-595.005 38,-511 38,-511 38,-511 38,-327 38,-278.078 191.207,-262.302 278.284,-257.286"/>
</g>
<!-- ActiveRecord::Base&#45;&gt;AdminUser -->
<g id="edge9" class="edge"><title>ActiveRecord::Base&#45;&gt;AdminUser</title>
<path fill="none" stroke="black" d="M562.149,-592.677C605.63,-583.347 665.66,-568.342 716,-548 730.737,-542.045 746.288,-533.453 758.59,-526.048"/>
</g>
<!-- ActiveRecord::Base&#45;&gt;ImageMap -->
<g id="edge12" class="edge"><title>ActiveRecord::Base&#45;&gt;ImageMap</title>
<path fill="none" stroke="black" d="M471.752,-588.385C454.534,-580.443 432.542,-571.36 412,-566 344.467,-548.38 322.261,-569.923 256,-548 240.891,-543.001 225.403,-534.164 213.448,-526.38"/>
</g>
<!-- ActiveRecord::Base&#45;&gt;NewsMention -->
<g id="edge13" class="edge"><title>ActiveRecord::Base&#45;&gt;NewsMention</title>
<path fill="none" stroke="black" d="M580.249,-599.413C737.065,-589.065 1078,-560.835 1078,-511 1078,-511 1078,-511 1078,-91 1078,-47.4053 1026.52,-30.1599 983.279,-23.3638"/>
</g>
<!-- ActiveRecord::Base&#45;&gt;ImageMapPolygon -->
<g id="edge14" class="edge"><title>ActiveRecord::Base&#45;&gt;ImageMapPolygon</title>
<path fill="none" stroke="black" d="M471.763,-588.345C454.548,-580.391 432.555,-571.309 412,-566 351.416,-550.351 173.312,-575.857 133,-528 105.444,-495.286 142.835,-445.468 166.4,-419.716"/>
</g>
<!-- ActiveRecord::Base&#45;&gt;NewsArticle -->
<g id="edge17" class="edge"><title>ActiveRecord::Base&#45;&gt;NewsArticle</title>
<path fill="none" stroke="black" d="M579.084,-598.599C727.225,-587.056 1040,-557.214 1040,-511 1040,-511 1040,-511 1040,-179 1040,-140.358 997.842,-116.982 964.576,-104.552"/>
</g>
<!-- ActiveRecord::Base&#45;&gt;NewsSource -->
<g id="edge19" class="edge"><title>ActiveRecord::Base&#45;&gt;NewsSource</title>
<path fill="none" stroke="black" d="M582.326,-601.166C686.054,-596.123 860.822,-582.634 914,-548 940.892,-530.486 957.012,-495.085 964.638,-473.971"/>
</g>
<!-- ActiveRecord::Base&#45;&gt;Election -->
<g id="edge23" class="edge"><title>ActiveRecord::Base&#45;&gt;Election</title>
<path fill="none" stroke="black" d="M472.257,-588.221C455.005,-580.126 432.82,-570.951 412,-566 348.339,-550.863 160.497,-579.399 120,-528 79.7994,-476.977 58.4172,-437.676 95,-384 117.428,-351.092 162.816,-337.874 195.85,-332.564"/>
</g>
<!-- ActiveRecord::Base&#45;&gt;RegionType -->
<g id="edge25" class="edge"><title>ActiveRecord::Base&#45;&gt;RegionType</title>
<path fill="none" stroke="black" d="M476.698,-587.801C448.476,-570.419 404.009,-543.032 376.502,-526.091"/>
</g>
<!-- ActiveRecord::Base&#45;&gt;IssueWebsite -->
<g id="edge26" class="edge"><title>ActiveRecord::Base&#45;&gt;IssueWebsite</title>
<path fill="none" stroke="black" d="M580.456,-599.495C685.992,-591.195 862,-568.704 862,-511 862,-511 862,-511 862,-327 862,-285.815 813.896,-268.181 773.684,-260.635"/>
</g>
<!-- ActiveRecord::Base&#45;&gt;Candidacy -->
<g id="edge27" class="edge"><title>ActiveRecord::Base&#45;&gt;Candidacy</title>
<path fill="none" stroke="black" d="M472.706,-588.258C455.408,-580.067 433.034,-570.787 412,-566 321.935,-545.503 0,-603.368 0,-511 0,-511 0,-511 0,-179 0,-119.977 196.537,-100.947 289.431,-95.2498"/>
</g>
<!-- ActiveRecord::Base&#45;&gt;Person -->
<g id="edge31" class="edge"><title>ActiveRecord::Base&#45;&gt;Person</title>
<path fill="none" stroke="black" d="M582.861,-601.353C698.792,-595.301 900,-575.507 900,-511 900,-511 900,-511 900,-253 900,-216.64 856.645,-197.279 825.653,-188.084"/>
</g>
<!-- ActiveRecord::Base&#45;&gt;Page -->
<g id="edge32" class="edge"><title>ActiveRecord::Base&#45;&gt;Page</title>
<path fill="none" stroke="black" d="M569.558,-594.479C609.736,-584.927 657.876,-565.88 683,-528 705.441,-494.165 683.741,-444.393 669.76,-419.072"/>
</g>
<!-- ActiveRecord::Base&#45;&gt;NavigationHeading -->
<g id="edge36" class="edge"><title>ActiveRecord::Base&#45;&gt;NavigationHeading</title>
<path fill="none" stroke="black" d="M503,-586.942C503,-570.267 503,-545.01 503,-528.264"/>
</g>
</g>
</svg>
